<svg width="393" height="852" viewBox="0 0 393 852" fill="none" xmlns="http://www.w3.org/2000/svg">
<rect width="393" height="852" fill="#080808"/>
<path d="M214.689 432.157H212.398C211.733 432.157 211.194 432.701 211.194 433.371V435.681C211.194 436.351 211.733 436.894 212.398 436.894H214.689C215.354 436.894 215.893 436.351 215.893 435.681V433.371C215.893 432.701 215.354 432.157 214.689 432.157Z" fill="white"/>
<path d="M200.592 425.052H198.301C197.636 425.052 197.097 425.595 197.097 426.265V428.575C197.097 429.245 197.636 429.789 198.301 429.789H200.592C201.257 429.789 201.796 429.245 201.796 428.575V426.265C201.796 425.595 201.257 425.052 200.592 425.052Z" fill="white"/>
<path d="M193.573 354H191.224C190.575 354 190.049 354.53 190.049 355.184V357.553C190.049 358.207 190.575 358.737 191.224 358.737H193.573C194.222 358.737 194.748 358.207 194.748 357.553V355.184C194.748 354.53 194.222 354 193.573 354Z" fill="white"/>
<path d="M200.592 432.157H198.301C197.636 432.157 197.097 432.701 197.097 433.371V435.681C197.097 436.351 197.636 436.894 198.301 436.894H200.592C201.257 436.894 201.796 436.351 201.796 435.681V433.371C201.796 432.701 201.257 432.157 200.592 432.157Z" fill="white"/>
<path d="M193.573 361.106H191.224C190.575 361.106 190.049 361.636 190.049 362.29V364.658C190.049 365.312 190.575 365.843 191.224 365.843H193.573C194.222 365.843 194.748 365.312 194.748 364.658V362.29C194.748 361.636 194.222 361.106 193.573 361.106Z" fill="white"/>
<path d="M200.592 439.263H198.301C197.636 439.263 197.097 439.807 197.097 440.477V442.786C197.097 443.457 197.636 444 198.301 444H200.592C201.257 444 201.796 443.457 201.796 442.786V440.477C201.796 439.807 201.257 439.263 200.592 439.263Z" fill="white"/>
<path d="M193.544 425.052H191.253C190.588 425.052 190.049 425.595 190.049 426.265V428.575C190.049 429.245 190.588 429.789 191.253 429.789H193.544C194.209 429.789 194.748 429.245 194.748 428.575V426.265C194.748 425.595 194.209 425.052 193.544 425.052Z" fill="white"/>
<path d="M207.67 361.106H205.321C204.672 361.106 204.146 361.636 204.146 362.29V364.658C204.146 365.312 204.672 365.843 205.321 365.843H207.67C208.319 365.843 208.845 365.312 208.845 364.658V362.29C208.845 361.636 208.319 361.106 207.67 361.106Z" fill="white"/>
<path d="M207.67 354H205.32C204.672 354 204.146 354.53 204.146 355.184V357.553C204.146 358.207 204.672 358.737 205.32 358.737H207.67C208.319 358.737 208.845 358.207 208.845 357.553V355.184C208.845 354.53 208.319 354 207.67 354Z" fill="white"/>
<path d="M214.689 439.263H212.398C211.733 439.263 211.194 439.807 211.194 440.477V442.786C211.194 443.457 211.733 444 212.398 444H214.689C215.354 444 215.893 443.457 215.893 442.786V440.477C215.893 439.807 215.354 439.263 214.689 439.263Z" fill="white"/>
<path d="M207.641 439.263H205.35C204.685 439.263 204.146 439.807 204.146 440.477V442.786C204.146 443.457 204.685 444 205.35 444H207.641C208.306 444 208.845 443.457 208.845 442.786V440.477C208.845 439.807 208.306 439.263 207.641 439.263Z" fill="white"/>
<path d="M207.641 425.052H205.35C204.685 425.052 204.146 425.595 204.146 426.265V428.575C204.146 429.245 204.685 429.789 205.35 429.789H207.641C208.306 429.789 208.845 429.245 208.845 428.575V426.265C208.845 425.595 208.306 425.052 207.641 425.052Z" fill="white"/>
<path d="M200.621 361.106H198.272C197.623 361.106 197.097 361.636 197.097 362.29V364.658C197.097 365.312 197.623 365.843 198.272 365.843H200.621C201.27 365.843 201.796 365.312 201.796 364.658V362.29C201.796 361.636 201.27 361.106 200.621 361.106Z" fill="white"/>
<path d="M193.544 432.157H191.253C190.588 432.157 190.049 432.701 190.049 433.371V435.681C190.049 436.351 190.588 436.894 191.253 436.894H193.544C194.209 436.894 194.748 436.351 194.748 435.681V433.371C194.748 432.701 194.209 432.157 193.544 432.157Z" fill="white"/>
<path d="M186.495 417.947H184.204C183.539 417.947 183 418.491 183 419.161V421.471C183 422.141 183.539 422.684 184.204 422.684H186.495C187.16 422.684 187.699 422.141 187.699 421.471V419.161C187.699 418.491 187.16 417.947 186.495 417.947Z" fill="white"/>
<path d="M186.495 410.842H184.204C183.539 410.842 183 411.385 183 412.055V414.365C183 415.035 183.539 415.579 184.204 415.579H186.495C187.16 415.579 187.699 415.035 187.699 414.365V412.055C187.699 411.385 187.16 410.842 186.495 410.842Z" fill="white"/>
<path d="M186.495 396.631H184.204C183.539 396.631 183 397.175 183 397.845V400.155C183 400.825 183.539 401.368 184.204 401.368H186.495C187.16 401.368 187.699 400.825 187.699 400.155V397.845C187.699 397.175 187.16 396.631 186.495 396.631Z" fill="white"/>
<path d="M184.204 403.736H186.505C187.165 403.736 187.709 404.274 187.709 404.95V407.269C187.709 407.935 187.175 408.483 186.505 408.483H184.204C183.544 408.483 183 407.944 183 407.269V404.95C183 404.284 183.534 403.736 184.204 403.736Z" fill="white"/>
<path d="M186.495 439.263H184.204C183.539 439.263 183 439.807 183 440.477V442.786C183 443.457 183.539 444 184.204 444H186.495C187.16 444 187.699 443.457 187.699 442.786V440.477C187.699 439.807 187.16 439.263 186.495 439.263Z" fill="white"/>
<path d="M186.495 432.157H184.204C183.539 432.157 183 432.701 183 433.371V435.681C183 436.351 183.539 436.894 184.204 436.894H186.495C187.16 436.894 187.699 436.351 187.699 435.681V433.371C187.699 432.701 187.16 432.157 186.495 432.157Z" fill="white"/>
<path d="M186.495 425.052H184.204C183.539 425.052 183 425.595 183 426.265V428.575C183 429.245 183.539 429.789 184.204 429.789H186.495C187.16 429.789 187.699 429.245 187.699 428.575V426.265C187.699 425.595 187.16 425.052 186.495 425.052Z" fill="white"/>
<path d="M186.524 368.21H184.175C183.526 368.21 183 368.74 183 369.394V371.763C183 372.417 183.526 372.947 184.175 372.947H186.524C187.173 372.947 187.699 372.417 187.699 371.763V369.394C187.699 368.74 187.173 368.21 186.524 368.21Z" fill="white"/>
<path d="M186.495 389.526H184.204C183.539 389.526 183 390.069 183 390.74V393.049C183 393.72 183.539 394.263 184.204 394.263H186.495C187.16 394.263 187.699 393.72 187.699 393.049V390.74C187.699 390.069 187.16 389.526 186.495 389.526Z" fill="white"/>
<path d="M186.524 354H184.175C183.526 354 183 354.53 183 355.184V357.553C183 358.207 183.526 358.737 184.175 358.737H186.524C187.173 358.737 187.699 358.207 187.699 357.553V355.184C187.699 354.53 187.173 354 186.524 354Z" fill="white"/>
<path d="M193.544 439.263H191.253C190.588 439.263 190.049 439.807 190.049 440.477V442.786C190.049 443.457 190.588 444 191.253 444H193.544C194.209 444 194.748 443.457 194.748 442.786V440.477C194.748 439.807 194.209 439.263 193.544 439.263Z" fill="white"/>
<path d="M186.524 361.106H184.175C183.526 361.106 183 361.636 183 362.29V364.658C183 365.312 183.526 365.843 184.175 365.843H186.524C187.173 365.843 187.699 365.312 187.699 364.658V362.29C187.699 361.636 187.173 361.106 186.524 361.106Z" fill="white"/>
<path d="M186.495 375.316H184.204C183.539 375.316 183 375.859 183 376.529V378.839C183 379.509 183.539 380.053 184.204 380.053H186.495C187.16 380.053 187.699 379.509 187.699 378.839V376.529C187.699 375.859 187.16 375.316 186.495 375.316Z" fill="white"/>
<path d="M186.495 382.421H184.204C183.539 382.421 183 382.965 183 383.635V385.945C183 386.615 183.539 387.158 184.204 387.158H186.495C187.16 387.158 187.699 386.615 187.699 385.945V383.635C187.699 382.965 187.16 382.421 186.495 382.421Z" fill="white"/>
<path d="M200.621 354H198.272C197.623 354 197.097 354.53 197.097 355.184V357.553C197.097 358.207 197.623 358.737 198.272 358.737H200.621C201.27 358.737 201.796 358.207 201.796 357.553V355.184C201.796 354.53 201.27 354 200.621 354Z" fill="white"/>
<path d="M228.787 396.631H226.495C225.83 396.631 225.291 397.175 225.291 397.845V400.155C225.291 400.825 225.83 401.368 226.495 401.368H228.787C229.451 401.368 229.99 400.825 229.99 400.155V397.845C229.99 397.175 229.451 396.631 228.787 396.631Z" fill="white"/>
<path d="M228.786 417.947H226.495C225.83 417.947 225.291 418.491 225.291 419.161V421.471C225.291 422.141 225.83 422.684 226.495 422.684H228.786C229.451 422.684 229.99 422.141 229.99 421.471V419.161C229.99 418.491 229.451 417.947 228.786 417.947Z" fill="white"/>
<path d="M226.495 403.736H228.796C229.456 403.736 230 404.274 230 404.95V407.269C230 407.935 229.466 408.483 228.796 408.483H226.505C225.845 408.483 225.301 407.944 225.301 407.269V404.95C225.301 404.284 225.835 403.736 226.505 403.736H226.495Z" fill="white"/>
<path d="M228.786 382.421H226.495C225.83 382.421 225.291 382.965 225.291 383.635V385.945C225.291 386.615 225.83 387.158 226.495 387.158H228.786C229.451 387.158 229.99 386.615 229.99 385.945V383.635C229.99 382.965 229.451 382.421 228.786 382.421Z" fill="white"/>
<path d="M228.787 410.842H226.495C225.83 410.842 225.291 411.385 225.291 412.055V414.365C225.291 415.035 225.83 415.579 226.495 415.579H228.787C229.451 415.579 229.99 415.035 229.99 414.365V412.055C229.99 411.385 229.451 410.842 228.787 410.842Z" fill="white"/>
<path d="M228.787 389.526H226.495C225.83 389.526 225.291 390.069 225.291 390.74V393.049C225.291 393.72 225.83 394.263 226.495 394.263H228.787C229.451 394.263 229.99 393.72 229.99 393.049V390.74C229.99 390.069 229.451 389.526 228.787 389.526Z" fill="white"/>
<path d="M228.816 361.106H226.466C225.817 361.106 225.291 361.636 225.291 362.29V364.658C225.291 365.312 225.817 365.843 226.466 365.843H228.816C229.464 365.843 229.99 365.312 229.99 364.658V362.29C229.99 361.636 229.464 361.106 228.816 361.106Z" fill="white"/>
<path d="M228.816 354H226.466C225.817 354 225.291 354.53 225.291 355.184V357.553C225.291 358.207 225.817 358.737 226.466 358.737H228.816C229.464 358.737 229.99 358.207 229.99 357.553V355.184C229.99 354.53 229.464 354 228.816 354Z" fill="white"/>
<path d="M228.787 375.316H226.495C225.83 375.316 225.291 375.859 225.291 376.529V378.839C225.291 379.509 225.83 380.053 226.495 380.053H228.787C229.451 380.053 229.99 379.509 229.99 378.839V376.529C229.99 375.859 229.451 375.316 228.787 375.316Z" fill="white"/>
<path d="M228.816 368.21H226.456C225.816 368.21 225.291 368.739 225.291 369.385V371.763C225.291 372.418 225.816 372.947 226.466 372.947H228.816C229.466 372.947 229.99 372.418 229.99 371.763V369.394C229.99 368.739 229.466 368.21 228.816 368.21Z" fill="white"/>
<path d="M214.689 425.052H212.398C211.733 425.052 211.194 425.595 211.194 426.265V428.575C211.194 429.245 211.733 429.789 212.398 429.789H214.689C215.354 429.789 215.893 429.245 215.893 428.575V426.265C215.893 425.595 215.354 425.052 214.689 425.052Z" fill="white"/>
<path d="M221.738 432.157H219.447C218.782 432.157 218.243 432.701 218.243 433.371V435.681C218.243 436.351 218.782 436.894 219.447 436.894H221.738C222.403 436.894 222.942 436.351 222.942 435.681V433.371C222.942 432.701 222.403 432.157 221.738 432.157Z" fill="white"/>
<path d="M221.738 439.263H219.447C218.782 439.263 218.243 439.807 218.243 440.477V442.786C218.243 443.457 218.782 444 219.447 444H221.738C222.403 444 222.942 443.457 222.942 442.786V440.477C222.942 439.807 222.403 439.263 221.738 439.263Z" fill="white"/>
<path d="M214.719 354H212.369C211.72 354 211.194 354.53 211.194 355.184V357.553C211.194 358.207 211.72 358.737 212.369 358.737H214.719C215.367 358.737 215.893 358.207 215.893 357.553V355.184C215.893 354.53 215.367 354 214.719 354Z" fill="white"/>
<path d="M214.718 361.106H212.369C211.72 361.106 211.194 361.636 211.194 362.29V364.658C211.194 365.312 211.72 365.843 212.369 365.843H214.718C215.367 365.843 215.893 365.312 215.893 364.658V362.29C215.893 361.636 215.367 361.106 214.718 361.106Z" fill="white"/>
<path d="M228.786 425.052H226.495C225.83 425.052 225.291 425.595 225.291 426.265V428.575C225.291 429.245 225.83 429.789 226.495 429.789H228.786C229.451 429.789 229.99 429.245 229.99 428.575V426.265C229.99 425.595 229.451 425.052 228.786 425.052Z" fill="white"/>
<path d="M221.738 425.052H219.447C218.782 425.052 218.243 425.595 218.243 426.265V428.575C218.243 429.245 218.782 429.789 219.447 429.789H221.738C222.403 429.789 222.942 429.245 222.942 428.575V426.265C222.942 425.595 222.403 425.052 221.738 425.052Z" fill="white"/>
<path d="M228.787 432.157H226.495C225.83 432.157 225.291 432.701 225.291 433.371V435.681C225.291 436.351 225.83 436.894 226.495 436.894H228.787C229.451 436.894 229.99 436.351 229.99 435.681V433.371C229.99 432.701 229.451 432.157 228.787 432.157Z" fill="white"/>
<path d="M228.786 439.263H226.495C225.83 439.263 225.291 439.807 225.291 440.477V442.786C225.291 443.457 225.83 444 226.495 444H228.786C229.451 444 229.99 443.457 229.99 442.786V440.477C229.99 439.807 229.451 439.263 228.786 439.263Z" fill="white"/>
<path d="M221.767 361.106H219.418C218.769 361.106 218.243 361.636 218.243 362.29V364.658C218.243 365.312 218.769 365.843 219.418 365.843H221.767C222.416 365.843 222.942 365.312 222.942 364.658V362.29C222.942 361.636 222.416 361.106 221.767 361.106Z" fill="white"/>
<path d="M221.767 354H219.418C218.769 354 218.243 354.53 218.243 355.184V357.553C218.243 358.207 218.769 358.737 219.418 358.737H221.767C222.416 358.737 222.942 358.207 222.942 357.553V355.184C222.942 354.53 222.416 354 221.767 354Z" fill="white"/>
<path d="M138.452 473.194C137.919 472.505 137.23 471.952 136.401 471.531C135.567 471.109 134.565 470.901 133.395 470.901C132.051 470.901 130.88 471.204 129.884 471.798C128.934 472.368 128.169 473.177 127.584 474.222C127.543 474.294 127.451 474.288 127.416 474.222C126.924 473.254 126.24 472.463 125.371 471.857C124.45 471.222 123.291 470.901 121.901 470.901C121.177 470.901 120.522 470.996 119.919 471.186C119.323 471.376 118.796 471.638 118.332 471.97C117.869 472.303 117.475 472.671 117.139 473.081C116.803 473.491 116.536 473.925 116.333 474.383H116.258V472.119C116.258 471.739 115.957 471.43 115.586 471.43H112.672C112.301 471.43 112 471.739 112 472.119V489.124C112 489.505 112.301 489.814 112.672 489.814H115.812C116.183 489.814 116.484 489.505 116.484 489.124V479.701C116.484 479.089 116.565 478.483 116.727 477.882C116.89 477.282 117.127 476.753 117.434 476.296C117.747 475.838 118.147 475.458 118.645 475.167C119.143 474.876 119.728 474.727 120.4 474.727C121.547 474.727 122.387 475.102 122.92 475.856C123.453 476.611 123.726 477.562 123.726 478.708V489.124C123.726 489.505 124.027 489.814 124.398 489.814H127.538C127.908 489.814 128.21 489.505 128.21 489.124V479.778C128.21 479.19 128.285 478.595 128.436 477.995C128.586 477.395 128.824 476.854 129.142 476.367C129.467 475.88 129.878 475.488 130.376 475.179C130.875 474.87 131.471 474.721 132.167 474.721C132.862 474.721 133.464 474.876 133.905 475.179C134.339 475.488 134.681 475.874 134.93 476.349C135.179 476.825 135.341 477.354 135.417 477.936C135.492 478.524 135.527 479.083 135.527 479.623V489.124C135.527 489.505 135.828 489.814 136.199 489.814H139.339C139.709 489.814 140.011 489.505 140.011 489.124V478.322C140.011 477.377 139.883 476.456 139.64 475.565C139.391 474.674 138.997 473.878 138.464 473.188L138.452 473.194Z" fill="white"/>
<path d="M164.25 466.088C162.918 464.953 161.423 464.103 159.772 463.539C158.115 462.98 156.47 462.695 154.824 462.695H146.719C146.349 462.695 146.047 463.004 146.047 463.384V489.118C146.047 489.499 146.349 489.808 146.719 489.808H154.824C156.47 489.808 158.115 489.528 159.772 488.964C161.429 488.405 162.918 487.556 164.25 486.415C165.582 485.28 166.66 483.866 167.477 482.184C168.3 480.497 168.711 478.524 168.711 476.248C168.711 473.973 168.3 472.03 167.477 470.33C166.654 468.631 165.577 467.217 164.25 466.082V466.088ZM165.148 480.354C164.661 481.679 163.937 482.862 162.964 483.896C161.991 484.929 160.768 485.767 159.285 486.403C157.802 487.039 156.07 487.36 154.077 487.36H149.066C148.886 487.36 148.736 487.211 148.736 487.021V465.44C148.736 465.28 148.863 465.149 149.019 465.149H154.071C156.064 465.149 157.796 465.47 159.279 466.106C160.762 466.742 161.985 467.579 162.958 468.613C163.931 469.647 164.656 470.83 165.142 472.155C165.629 473.48 165.872 474.846 165.872 476.254C165.872 477.663 165.629 479.023 165.142 480.354H165.148Z" fill="white"/>
<path d="M186.201 474.056C185.506 473.254 184.631 472.612 183.588 472.143C182.545 471.674 181.335 471.436 179.967 471.436C178.722 471.436 177.563 471.674 176.497 472.143C175.425 472.618 174.493 473.272 173.699 474.116C172.9 474.959 172.28 475.952 171.834 477.104C171.388 478.251 171.162 479.505 171.162 480.86C171.162 482.214 171.393 483.462 171.851 484.615C172.309 485.762 172.94 486.76 173.734 487.604C174.527 488.447 175.483 489.101 176.59 489.576C177.696 490.046 178.896 490.283 180.193 490.283C181.636 490.283 182.986 489.992 184.243 489.404C185.361 488.881 186.398 488.055 187.348 486.926C187.545 486.694 187.504 486.338 187.267 486.148L186.259 485.34C186.016 485.144 185.662 485.179 185.471 485.429C184.996 486.059 184.376 486.623 183.606 487.122C182.65 487.746 181.508 488.061 180.188 488.061C179.29 488.061 178.455 487.889 177.685 487.544C176.914 487.2 176.242 486.736 175.669 486.148C175.095 485.56 174.649 484.87 174.325 484.08C174.023 483.337 173.85 482.553 173.809 481.721C173.809 481.632 173.879 481.549 173.966 481.549H187.655C188.009 481.549 188.298 481.264 188.31 480.901L188.327 480.325C188.327 479.101 188.148 477.948 187.783 476.879C187.423 475.809 186.89 474.87 186.195 474.062L186.201 474.056ZM185.61 479.469H173.989C173.913 479.469 173.85 479.398 173.855 479.321C173.919 478.608 174.099 477.924 174.406 477.265C174.73 476.564 175.165 475.94 175.715 475.387C176.26 474.841 176.897 474.407 177.621 474.086C178.345 473.765 179.127 473.605 179.973 473.605C181.792 473.605 183.188 474.157 184.173 475.268C185.129 476.344 185.656 477.693 185.755 479.315C185.755 479.392 185.697 479.463 185.622 479.463L185.61 479.469Z" fill="white"/>
<path d="M205.539 471.887H204.033C203.755 471.887 203.505 472.06 203.407 472.327L197.863 487.051H197.787L192.278 472.327C192.179 472.06 191.93 471.887 191.652 471.887H190.007C189.659 471.887 189.416 472.25 189.549 472.583L196.235 489.38C196.339 489.642 196.582 489.808 196.855 489.808H198.755C199.027 489.808 199.27 489.636 199.375 489.38L206.014 472.612C206.153 472.268 205.904 471.887 205.539 471.887Z" fill="white"/>
<path d="M232.159 485.078L231.024 484.329C230.769 484.163 230.438 484.234 230.259 484.484C229.396 485.66 228.353 486.528 227.136 487.098C225.769 487.734 224.321 488.055 222.803 488.055C221.111 488.055 219.588 487.74 218.232 487.098C216.876 486.462 215.723 485.601 214.779 484.519C213.835 483.438 213.105 482.184 212.595 480.758C212.085 479.332 211.83 477.835 211.83 476.254C211.83 474.674 212.079 473.177 212.578 471.751C213.076 470.324 213.794 469.071 214.744 467.989C215.689 466.908 216.842 466.052 218.197 465.411C219.553 464.775 221.088 464.454 222.809 464.454C223.654 464.454 224.442 464.555 225.178 464.763C225.914 464.965 226.592 465.238 227.212 465.565C227.831 465.898 228.376 466.278 228.834 466.712C229.135 466.997 229.401 467.282 229.622 467.567C229.807 467.811 230.149 467.853 230.392 467.668L231.707 466.676C231.974 466.474 232.014 466.088 231.806 465.827C231.429 465.357 230.995 464.929 230.491 464.537C229.819 464.008 229.071 463.557 228.249 463.182C227.426 462.808 226.551 462.517 225.618 462.309C224.686 462.101 223.736 462 222.762 462C220.798 462 218.973 462.357 217.293 463.07C215.613 463.783 214.159 464.775 212.925 466.034C211.691 467.3 210.73 468.797 210.034 470.532C209.339 472.267 208.992 474.169 208.992 476.237C208.992 478.304 209.333 480.206 210.017 481.941C210.701 483.676 211.651 485.179 212.873 486.439C214.09 487.704 215.55 488.691 217.241 489.404C218.933 490.117 220.775 490.473 222.768 490.473C223.962 490.473 225.062 490.337 226.07 490.063C227.078 489.79 227.999 489.421 228.834 488.952C229.668 488.483 230.404 487.942 231.035 487.33C231.516 486.867 231.939 486.379 232.315 485.874C232.512 485.607 232.431 485.227 232.159 485.042V485.078Z" fill="white"/>
<path d="M249.869 485.791V477.942C249.869 476.843 249.695 475.886 249.348 475.072C249 474.258 248.514 473.581 247.894 473.04C247.274 472.505 246.55 472.101 245.727 471.834C244.904 471.567 244.024 471.43 243.074 471.43C241.579 471.43 240.241 471.673 239.059 472.155C238.103 472.547 237.298 473.022 236.643 473.581C236.394 473.795 236.353 474.175 236.562 474.431L237.246 475.256C237.443 475.494 237.79 475.542 238.022 475.34C238.561 474.876 239.186 474.49 239.899 474.187C240.797 473.807 241.764 473.611 242.813 473.611C244.331 473.611 245.49 473.991 246.283 474.751C247.077 475.512 247.477 476.665 247.477 478.209V478.78C245.883 478.78 244.348 478.839 242.865 478.952C241.382 479.065 240.073 479.321 238.926 479.719C237.779 480.117 236.869 480.717 236.18 481.525C235.49 482.333 235.154 483.426 235.154 484.811C235.154 485.809 235.345 486.653 235.734 487.348C236.122 488.043 236.603 488.602 237.188 489.041C237.773 489.475 238.422 489.79 239.128 489.98C239.835 490.17 240.53 490.265 241.202 490.265C242.622 490.265 243.833 490.004 244.841 489.481C245.849 488.958 246.752 488.097 247.546 486.896H247.621C247.621 487.384 247.645 487.877 247.697 488.388C247.726 488.673 247.755 488.952 247.795 489.214C247.842 489.552 248.125 489.808 248.577 489.808H249.487C249.835 489.808 250.101 489.499 250.055 489.142C250.008 488.78 249.968 488.376 249.939 487.93C249.887 487.188 249.863 486.475 249.863 485.785L249.869 485.791ZM247.482 482.191C247.482 482.981 247.361 483.735 247.112 484.448C246.863 485.161 246.503 485.797 246.028 486.344C245.553 486.89 244.968 487.324 244.273 487.645C243.578 487.966 242.778 488.126 241.886 488.126C241.388 488.126 240.895 488.067 240.409 487.954C239.922 487.841 239.482 487.645 239.082 487.378C238.682 487.11 238.364 486.76 238.132 486.326C237.895 485.892 237.779 485.358 237.779 484.716C237.779 483.872 238.051 483.195 238.601 482.684C239.146 482.173 239.853 481.786 240.71 481.513C241.567 481.24 242.529 481.068 243.584 480.978C244.644 480.889 245.692 480.842 246.741 480.842H247.488V482.185L247.482 482.191Z" fill="white"/>
<path d="M273.836 471.43C272.417 471.43 271.189 471.757 270.157 472.404C269.207 473.004 268.437 473.848 267.857 474.936C267.8 475.048 267.643 475.043 267.591 474.924C267.319 474.288 267.006 473.765 266.647 473.343C266.235 472.856 265.789 472.47 265.303 472.173C264.816 471.881 264.318 471.679 263.808 471.578C263.298 471.477 262.806 471.424 262.331 471.424C261.062 471.424 259.909 471.751 258.878 472.398C257.847 473.052 257.082 473.896 256.584 474.947H256.508C256.508 474.567 256.497 474.08 256.474 473.492C256.456 473.105 256.433 472.749 256.41 472.404C256.387 472.107 256.149 471.881 255.721 471.881H254.55C254.22 471.881 253.959 472.161 253.983 472.499C254.011 472.945 254.035 473.432 254.052 473.949C254.075 474.716 254.087 475.34 254.087 475.827V489.196C254.087 489.529 254.353 489.802 254.678 489.802H256.051C256.369 489.802 256.624 489.541 256.624 489.214V480.616C256.624 479.416 256.775 478.376 257.07 477.496C257.372 476.617 257.76 475.886 258.246 475.316C258.733 474.739 259.278 474.312 259.892 474.032C260.5 473.753 261.102 473.611 261.699 473.611C262.545 473.611 263.24 473.747 263.791 474.015C264.335 474.282 264.77 474.668 265.077 475.161C265.39 475.66 265.604 476.267 265.731 476.98C265.853 477.693 265.917 478.489 265.917 479.356V489.178C265.917 489.529 266.195 489.808 266.531 489.808H267.875C268.193 489.808 268.454 489.541 268.454 489.214V480.271C268.454 479.428 268.541 478.614 268.715 477.823C268.889 477.033 269.167 476.326 269.555 475.696C269.943 475.072 270.453 474.567 271.084 474.181C271.716 473.801 272.498 473.605 273.419 473.605C275.064 473.605 276.223 474.181 276.912 475.328C277.596 476.474 277.938 477.996 277.938 479.885V489.19C277.938 489.529 278.204 489.802 278.535 489.802H279.879C280.209 489.802 280.475 489.529 280.475 489.19V478.81C280.475 476.587 279.919 474.805 278.813 473.45C277.706 472.095 276.043 471.418 273.83 471.418L273.836 471.43Z" fill="white"/>
<path d="M302.34 477.134C301.905 475.987 301.297 474.989 300.509 474.145C299.721 473.302 298.777 472.642 297.67 472.155C296.564 471.668 295.324 471.43 293.957 471.43C292.711 471.43 291.489 471.733 290.278 472.327C289.073 472.927 288.105 473.813 287.381 474.989H287.271V472.529C287.271 472.173 286.993 471.887 286.645 471.887H285.359C285.012 471.887 284.734 472.173 284.734 472.529V498.311C284.734 498.691 285.035 499 285.406 499H286.605C286.976 499 287.277 498.691 287.277 498.311V486.784H287.387C288.111 487.907 289.073 488.768 290.284 489.368C291.489 489.968 292.717 490.266 293.962 490.266C295.33 490.266 296.569 490.022 297.676 489.541C298.782 489.053 299.727 488.394 300.515 487.55C301.297 486.706 301.911 485.714 302.345 484.561C302.78 483.415 303 482.173 303 480.848C303 479.523 302.78 478.281 302.345 477.134H302.34ZM299.854 483.664C299.553 484.544 299.124 485.31 298.568 485.964C298.006 486.617 297.317 487.128 296.494 487.497C295.671 487.865 294.739 488.049 293.696 488.049C292.723 488.049 291.831 487.865 291.008 487.497C290.185 487.128 289.478 486.623 288.882 485.981C288.285 485.346 287.816 484.585 287.48 483.706C287.144 482.826 286.976 481.876 286.976 480.854C286.976 479.832 287.144 478.881 287.48 478.002C287.816 477.122 288.285 476.356 288.882 475.702C289.478 475.049 290.191 474.543 291.008 474.169C291.831 473.801 292.723 473.617 293.696 473.617C294.739 473.617 295.677 473.807 296.494 474.193C297.311 474.579 298.006 475.09 298.568 475.744C299.13 476.397 299.559 477.158 299.854 478.043C300.155 478.923 300.3 479.861 300.3 480.86C300.3 481.858 300.15 482.791 299.854 483.676V483.664Z" fill="white"/>
<path d="M131.253 774.802C131.253 775.803 131.123 776.869 130.473 777.519C130.135 777.857 129.563 778.078 128.913 778.078C128.211 778.078 127.626 777.909 127.106 777.246V780.86H126.17V771.604H127.106V772.358C127.626 771.682 128.211 771.526 128.913 771.526C129.563 771.526 130.135 771.747 130.473 772.085C131.123 772.735 131.253 773.801 131.253 774.802ZM130.317 774.802C130.317 773.554 130.109 772.358 128.718 772.358C127.327 772.358 127.106 773.554 127.106 774.802C127.106 776.05 127.327 777.246 128.718 777.246C130.109 777.246 130.317 776.05 130.317 774.802ZM138.342 774.802C138.342 775.79 138.212 776.687 137.562 777.35C137.12 777.792 136.509 778.078 135.729 778.078C134.949 778.078 134.338 777.792 133.896 777.35C133.246 776.687 133.116 775.79 133.116 774.802C133.116 773.814 133.246 772.917 133.896 772.254C134.338 771.812 134.949 771.526 135.729 771.526C136.509 771.526 137.12 771.812 137.562 772.254C138.212 772.917 138.342 773.814 138.342 774.802ZM137.406 774.802C137.406 774.087 137.367 773.294 136.899 772.826C136.6 772.527 136.184 772.358 135.729 772.358C135.274 772.358 134.871 772.527 134.572 772.826C134.104 773.294 134.052 774.087 134.052 774.802C134.052 775.517 134.104 776.31 134.572 776.778C134.871 777.077 135.274 777.246 135.729 777.246C136.184 777.246 136.6 777.077 136.899 776.778C137.367 776.31 137.406 775.517 137.406 774.802ZM148.583 771.604L146.568 778H145.697L144.02 773.034L142.356 778H141.485L139.457 771.604H140.471L141.94 776.739L143.617 771.604H144.423L146.113 776.739L147.569 771.604H148.583ZM154.929 775.049H150.613C150.613 776.453 151.276 777.259 152.498 777.259C153.239 777.259 153.668 777.038 154.175 776.531L154.812 777.09C154.162 777.74 153.564 778.078 152.472 778.078C150.782 778.078 149.677 777.064 149.677 774.802C149.677 772.735 150.678 771.526 152.303 771.526C153.954 771.526 154.929 772.722 154.929 774.62V775.049ZM153.993 774.347C153.967 773.827 153.941 773.632 153.798 773.281C153.551 772.696 152.979 772.319 152.303 772.319C151.627 772.319 151.055 772.696 150.808 773.281C150.665 773.632 150.639 773.827 150.613 774.347H153.993ZM161.385 772.124L160.696 772.826C160.345 772.475 160.085 772.358 159.591 772.358C158.655 772.358 158.057 773.099 158.057 774.074V778H157.121V771.604H158.057V772.384C158.408 771.851 159.11 771.526 159.851 771.526C160.462 771.526 160.93 771.669 161.385 772.124ZM167.25 775.049H162.934C162.934 776.453 163.597 777.259 164.819 777.259C165.56 777.259 165.989 777.038 166.496 776.531L167.133 777.09C166.483 777.74 165.885 778.078 164.793 778.078C163.103 778.078 161.998 777.064 161.998 774.802C161.998 772.735 162.999 771.526 164.624 771.526C166.275 771.526 167.25 772.722 167.25 774.62V775.049ZM166.314 774.347C166.288 773.827 166.262 773.632 166.119 773.281C165.872 772.696 165.3 772.319 164.624 772.319C163.948 772.319 163.376 772.696 163.129 773.281C162.986 773.632 162.96 773.827 162.934 774.347H166.314ZM174.187 778H173.264V777.233C172.744 777.909 172.146 778.078 171.444 778.078C170.794 778.078 170.222 777.857 169.884 777.519C169.234 776.869 169.104 775.803 169.104 774.802C169.104 773.801 169.234 772.735 169.884 772.085C170.222 771.747 170.794 771.526 171.444 771.526C172.146 771.526 172.731 771.682 173.251 772.345V768.744H174.187V778ZM173.251 774.802C173.251 773.554 173.043 772.358 171.652 772.358C170.261 772.358 170.04 773.554 170.04 774.802C170.04 776.05 170.261 777.246 171.652 777.246C173.043 777.246 173.251 776.05 173.251 774.802ZM185.247 774.802C185.247 775.803 185.117 776.869 184.467 777.519C184.129 777.857 183.557 778.078 182.907 778.078C182.205 778.078 181.62 777.909 181.1 777.233V778H180.164V768.744H181.1V772.345C181.62 771.682 182.205 771.526 182.907 771.526C183.557 771.526 184.129 771.747 184.467 772.085C185.117 772.735 185.247 773.801 185.247 774.802ZM184.311 774.802C184.311 773.554 184.103 772.358 182.712 772.358C181.321 772.358 181.1 773.554 181.1 774.802C181.1 776.05 181.321 777.246 182.712 777.246C184.103 777.246 184.311 776.05 184.311 774.802ZM191.946 771.604L189.034 779.547C188.904 779.898 188.761 780.132 188.579 780.301C188.241 780.626 187.786 780.743 187.331 780.743H186.928V779.911H187.214C187.864 779.911 188.059 779.703 188.267 779.118L188.722 777.87L186.421 771.604H187.435L189.19 776.739L190.932 771.604H191.946Z" fill="#828282"/>
<g clip-path="url(#clip0_2753_1869)">
<path fill-rule="evenodd" clip-rule="evenodd" d="M223.781 776.68H225.398V773.158H228.997V771.647H225.398V769.661H229.242V768.15H223.781V776.68Z" fill="white"/>
<path fill-rule="evenodd" clip-rule="evenodd" d="M234.629 773.755C234.629 774.827 234.102 775.437 233.11 775.437C232.229 775.437 231.739 774.937 231.739 774.096V770.636H230.197V774.242C230.197 775.814 231.213 776.777 232.56 776.777C233.674 776.777 234.237 776.265 234.482 775.705H234.653V776.68H236.171V770.636H234.629V773.755Z" fill="white"/>
<path fill-rule="evenodd" clip-rule="evenodd" d="M240.113 768.759H238.571V770.636H237.028V771.976H238.571V775.51C238.571 776.192 239.085 776.68 239.77 776.68H241.435V775.339H240.456C240.236 775.339 240.113 775.217 240.113 774.974V771.976H241.778V770.636H240.113V768.759Z" fill="white"/>
<path fill-rule="evenodd" clip-rule="evenodd" d="M247.287 773.755C247.287 774.827 246.761 775.437 245.769 775.437C244.888 775.437 244.398 774.937 244.398 774.096V770.636H242.855V774.242C242.855 775.814 243.871 776.777 245.218 776.777C246.332 776.777 246.896 776.265 247.141 775.705H247.312V776.68H248.83V770.636H247.287V773.755Z" fill="white"/>
<path fill-rule="evenodd" clip-rule="evenodd" d="M256.065 773.036C256.163 772.317 256.665 771.805 257.534 771.805C258.33 771.805 258.869 772.293 258.954 773.036H256.065ZM257.546 770.465C255.759 770.465 254.449 771.781 254.449 773.609C254.449 775.485 255.759 776.85 257.571 776.85C259.199 776.85 259.909 775.997 260.326 775.364L259.003 774.608C258.795 775.035 258.403 775.51 257.546 775.51C256.665 775.51 256.09 774.888 256.053 774.108H260.546V773.511C260.546 771.696 259.309 770.465 257.546 770.465Z" fill="white"/>
<path fill-rule="evenodd" clip-rule="evenodd" d="M264.488 775.485C263.558 775.485 262.823 774.827 262.823 773.658C262.823 772.488 263.558 771.83 264.488 771.83C265.443 771.83 266.153 772.512 266.153 773.658C266.153 774.803 265.443 775.485 264.488 775.485ZM266.153 768.15V771.489H266.006C265.688 770.977 265.149 770.465 264.072 770.465C262.554 770.465 261.28 771.805 261.28 773.658C261.28 775.51 262.554 776.85 264.072 776.85C265.149 776.85 265.688 776.338 266.006 775.827H266.178V776.68H267.696V768.15H266.153Z" fill="white"/>
<path fill-rule="evenodd" clip-rule="evenodd" d="M250.299 771.781V776.68H251.842V772.317C251.842 772.074 251.964 771.952 252.184 771.952H254.094V770.611H251.499C250.813 770.611 250.299 771.099 250.299 771.781Z" fill="white"/>
<path fill-rule="evenodd" clip-rule="evenodd" d="M199.114 781H203.384V776.75H214.486V772.5H203.384L199.114 776.75V781Z" fill="white"/>
<path fill-rule="evenodd" clip-rule="evenodd" d="M199.114 768.25V772.5H203.384V768.25H214.486V764H203.384L199.114 768.25Z" fill="white"/>
</g>
<defs>
<clipPath id="clip0_2753_1869">
<rect width="68.8095" height="17" fill="white" transform="translate(199 764)"/>
</clipPath>
</defs>
</svg>
