<svg width="28" height="28" viewBox="0 0 28 28" fill="none" xmlns="http://www.w3.org/2000/svg">
<g clip-path="url(#clip0_2529_3618)">
<path fill-rule="evenodd" clip-rule="evenodd" d="M19.1809 20.2926C22.2304 19.9336 24.8857 18.0807 25.2194 16.3878C25.7452 13.7208 25.7018 9.87958 25.7018 9.87958C25.7018 4.67325 22.2426 3.14719 22.2426 3.14719C20.4985 2.35727 17.5035 2.02509 14.3919 2H14.3154C11.2039 2.02509 8.21082 2.35727 6.46653 3.14719C6.46653 3.14719 3.0072 4.67325 3.0072 9.87958C3.0072 10.1952 3.00554 10.5272 3.00382 10.8728C2.99904 11.8326 2.99373 12.8974 3.02188 14.0089C3.1475 19.1004 3.96851 24.1184 8.74242 25.3644C10.9436 25.9389 12.8334 26.0591 14.3554 25.9766C17.1156 25.8257 18.665 25.0053 18.665 25.0053L18.574 23.0305C18.574 23.0305 16.6016 23.6438 14.3864 23.5691C12.1917 23.4949 9.87473 23.3357 9.51976 20.6786C9.48698 20.4452 9.47058 20.1957 9.47058 19.9336C9.47058 19.9336 11.625 20.4528 14.3554 20.5762C16.025 20.6517 17.5907 20.4797 19.1809 20.2926ZM21.6213 16.5873V10.2833C21.6213 8.99495 21.2886 7.97111 20.6205 7.21364C19.9313 6.45617 19.0288 6.06787 17.9087 6.06787C16.6125 6.06787 15.631 6.5591 14.9822 7.54169L14.3512 8.58453L13.7203 7.54169C13.0713 6.5591 12.0898 6.06787 10.7937 6.06787C9.67349 6.06787 8.77106 6.45617 8.08197 7.21364C7.41373 7.97111 7.08105 8.99495 7.08105 10.2833V16.5873H9.61383V10.4686C9.61383 9.17882 10.1642 8.52415 11.265 8.52415C12.4822 8.52415 13.0923 9.30075 13.0923 10.8364V14.1855H15.6101V10.8364C15.6101 9.30075 16.2201 8.52415 17.4373 8.52415C18.5381 8.52415 19.0885 9.17882 19.0885 10.4686V16.5873H21.6213Z" fill="white"/>
</g>
</svg>
