<svg width="32" height="32" viewBox="0 0 32 32" fill="none" xmlns="http://www.w3.org/2000/svg">
<path d="M7.53348 15.0868C6.68506 15.0868 6.04874 14.8747 5.62453 14.4505C5.20818 14.0262 5 13.3742 5 12.4944V7.58061C5 6.70077 5.20818 6.05267 5.62453 5.63631C6.04874 5.2121 6.68506 5 7.53348 5H12.5415C13.3899 5 14.0262 5.2121 14.4505 5.63631C14.8747 6.05267 15.0868 6.70077 15.0868 7.58061V12.4944C15.0868 13.3742 14.8747 14.0262 14.4505 14.4505C14.0262 14.8747 13.3899 15.0868 12.5415 15.0868H7.53348ZM7.49813 13.2132H12.5769C12.789 13.2132 12.95 13.1582 13.06 13.0482C13.17 12.9382 13.225 12.7733 13.225 12.5533V7.50991C13.225 7.28995 13.17 7.12891 13.06 7.02678C12.95 6.9168 12.789 6.86181 12.5769 6.86181H7.49813C7.28602 6.86181 7.12498 6.9168 7.015 7.02678C6.91287 7.12891 6.86181 7.28995 6.86181 7.50991V12.5533C6.86181 12.7733 6.91287 12.9382 7.015 13.0482C7.12498 13.1582 7.28602 13.2132 7.49813 13.2132ZM8.98286 11.3396C8.81789 11.3396 8.7354 11.2414 8.7354 11.045V9.00643C8.7354 8.82575 8.81789 8.7354 8.98286 8.7354H11.0803C11.2532 8.7354 11.3396 8.82575 11.3396 9.00643V11.045C11.3396 11.2414 11.2532 11.3396 11.0803 11.3396H8.98286ZM19.4585 15.0868C18.6101 15.0868 17.9738 14.8747 17.5495 14.4505C17.1253 14.0262 16.9132 13.3742 16.9132 12.4944V7.58061C16.9132 6.70077 17.1253 6.05267 17.5495 5.63631C17.9738 5.2121 18.6101 5 19.4585 5H24.4665C25.3149 5 25.9473 5.2121 26.3637 5.63631C26.7879 6.05267 27 6.70077 27 7.58061V12.4944C27 13.3742 26.7879 14.0262 26.3637 14.4505C25.9473 14.8747 25.3149 15.0868 24.4665 15.0868H19.4585ZM19.4231 13.2132H24.5019C24.7218 13.2132 24.8829 13.1582 24.985 13.0482C25.0871 12.9382 25.1382 12.7733 25.1382 12.5533V7.50991C25.1382 7.28995 25.0871 7.12891 24.985 7.02678C24.8829 6.9168 24.7218 6.86181 24.5019 6.86181H19.4231C19.2032 6.86181 19.0382 6.9168 18.9282 7.02678C18.8261 7.12891 18.775 7.28995 18.775 7.50991V12.5533C18.775 12.7733 18.8261 12.9382 18.9282 13.0482C19.0382 13.1582 19.2032 13.2132 19.4231 13.2132ZM20.955 11.3396C20.8057 11.3396 20.7311 11.2414 20.7311 11.045V9.00643C20.7311 8.82575 20.8057 8.7354 20.955 8.7354H23.0643C23.2371 8.7354 23.3235 8.82575 23.3235 9.00643V11.045C23.3235 11.2414 23.2371 11.3396 23.0643 11.3396H20.955ZM7.53348 27C6.68506 27 6.04874 26.7879 5.62453 26.3637C5.20818 25.9473 5 25.2992 5 24.4194V19.4938C5 18.6219 5.20818 17.9738 5.62453 17.5495C6.04874 17.1253 6.68506 16.9132 7.53348 16.9132H12.5415C13.3899 16.9132 14.0262 17.1253 14.4505 17.5495C14.8747 17.9738 15.0868 18.6219 15.0868 19.4938V24.4194C15.0868 25.2992 14.8747 25.9473 14.4505 26.3637C14.0262 26.7879 13.3899 27 12.5415 27H7.53348ZM7.49813 25.1382H12.5769C12.789 25.1382 12.95 25.0832 13.06 24.9732C13.17 24.8632 13.225 24.7022 13.225 24.4901V19.4349C13.225 19.215 13.17 19.05 13.06 18.94C12.95 18.83 12.789 18.775 12.5769 18.775H7.49813C7.28602 18.775 7.12498 18.83 7.015 18.94C6.91287 19.05 6.86181 19.215 6.86181 19.4349V24.4901C6.86181 24.7022 6.91287 24.8632 7.015 24.9732C7.12498 25.0832 7.28602 25.1382 7.49813 25.1382ZM8.98286 23.2646C8.81789 23.2646 8.7354 23.1664 8.7354 22.97V20.9314C8.7354 20.7508 8.81789 20.6604 8.98286 20.6604H11.0803C11.2532 20.6604 11.3396 20.7508 11.3396 20.9314V22.97C11.3396 23.1664 11.2532 23.2646 11.0803 23.2646H8.98286ZM17.7499 20.0595C17.5849 20.0595 17.5024 19.9652 17.5024 19.7766V17.7381C17.5024 17.5574 17.5849 17.4671 17.7499 17.4671H19.8473C20.0123 17.4671 20.0948 17.5574 20.0948 17.7381V19.7766C20.0948 19.9652 20.0123 20.0595 19.8473 20.0595H17.7499ZM24.0541 20.0595C23.8891 20.0595 23.8066 19.9652 23.8066 19.7766V17.7381C23.8066 17.5574 23.8891 17.4671 24.0541 17.4671H26.1516C26.3166 17.4671 26.399 17.5574 26.399 17.7381V19.7766C26.399 19.9652 26.3166 20.0595 26.1516 20.0595H24.0541ZM20.9314 23.2292C20.7665 23.2292 20.684 23.131 20.684 22.9347V20.8961C20.684 20.7154 20.7665 20.6251 20.9314 20.6251H23.0289C23.1939 20.6251 23.2764 20.7154 23.2764 20.8961V22.9347C23.2764 23.131 23.1939 23.2292 23.0289 23.2292H20.9314ZM17.7499 26.3755C17.5849 26.3755 17.5024 26.2812 17.5024 26.0927V24.0423C17.5024 23.8616 17.5849 23.7713 17.7499 23.7713H19.8473C20.0123 23.7713 20.0948 23.8616 20.0948 24.0423V26.0927C20.0948 26.2812 20.0123 26.3755 19.8473 26.3755H17.7499ZM24.0541 26.3755C23.8891 26.3755 23.8066 26.2812 23.8066 26.0927V24.0423C23.8066 23.8616 23.8891 23.7713 24.0541 23.7713H26.1516C26.3166 23.7713 26.399 23.8616 26.399 24.0423V26.0927C26.399 26.2812 26.3166 26.3755 26.1516 26.3755H24.0541Z" fill="white"/>
</svg>
