<svg width="28" height="28" viewBox="0 0 28 28" fill="none" xmlns="http://www.w3.org/2000/svg">
<path d="M19.5629 13.1235C19.4628 13.074 19.3611 13.0263 19.258 12.9806C19.0786 9.56728 17.272 7.61312 14.2385 7.59312C14.2248 7.59304 14.2111 7.59304 14.1974 7.59304C12.3829 7.59304 10.8739 8.39261 9.94513 9.84759L11.6134 11.0291C12.3073 9.94229 13.3962 9.7106 14.1982 9.7106C14.2074 9.7106 14.2167 9.7106 14.2259 9.71069C15.2247 9.71726 15.9784 10.0171 16.4662 10.6018C16.8212 11.0274 17.0586 11.6156 17.1762 12.358C16.2907 12.2026 15.3329 12.1548 14.3091 12.2154C11.425 12.3869 9.57089 14.1235 9.69542 16.5365C9.75861 17.7605 10.3492 18.8135 11.3585 19.5014C12.2117 20.0829 13.3107 20.3673 14.4529 20.3029C15.9612 20.2175 17.1445 19.6234 17.97 18.537C18.5969 17.712 18.9935 16.6429 19.1685 15.2957C19.8874 15.7436 20.4201 16.333 20.7143 17.0415C21.2146 18.2459 21.2438 20.225 19.6796 21.8385C18.3091 23.252 16.6618 23.8635 14.1721 23.8824C11.4104 23.8612 9.3218 22.9469 7.96383 21.1646C6.69221 19.4958 6.03503 17.0852 6.01051 14C6.03503 10.9147 6.69221 8.5042 7.96383 6.83534C9.3218 5.05311 11.4104 4.13875 14.1721 4.11756C16.9538 4.13891 19.0788 5.05767 20.4888 6.8485C21.1801 7.7267 21.7014 8.8311 22.045 10.1188L24 9.58028C23.5835 7.99528 22.9281 6.62946 22.0362 5.49675C20.2287 3.20084 17.5851 2.02439 14.1789 2H14.1653C10.766 2.02431 8.15199 3.20522 6.39591 5.50991C4.83324 7.5608 4.02717 10.4145 4.00008 13.9916L4 14L4.00008 14.0084C4.02717 17.5855 4.83324 20.4393 6.39591 22.4901C8.15199 24.7948 10.766 25.9757 14.1653 26H14.1789C17.201 25.9784 19.3313 25.1615 21.0862 23.3514C23.3821 20.9832 23.313 18.0149 22.5563 16.1926C22.0134 14.8859 20.9783 13.8245 19.5629 13.1235ZM14.3449 18.1884C13.0808 18.2619 11.7676 17.6761 11.7029 16.4215C11.6549 15.4913 12.3441 14.4532 14.4225 14.3296C14.6605 14.3154 14.894 14.3085 15.1235 14.3085C15.8784 14.3085 16.5846 14.3842 17.2267 14.5291C16.9872 17.6169 15.5825 18.1182 14.3449 18.1884Z" fill="white"/>
</svg>
