<svg width="31" height="57" viewBox="0 0 31 57" fill="none" xmlns="http://www.w3.org/2000/svg">
<path d="M5.11584 32.1768C6.26766 33.6111 7.99806 35.0001 9.98975 35.0001C11.1229 35.0001 12.0854 34.4659 13.1199 34.0759C14.0727 33.7239 15.08 33.5431 16.0955 33.5417C17.0752 33.536 18.0461 33.7267 18.951 34.1026C19.431 34.3056 19.9056 34.522 20.3935 34.7089C20.8886 34.9004 21.4146 34.9991 21.9452 35.0001C22.9269 34.9888 23.8823 34.6806 24.6862 34.116C27.0218 32.5133 28.7522 29.698 29.9787 27.2327C30.1013 26.9869 30.2186 26.7385 30.336 26.4928C30.5306 26.0814 30.224 25.5606 29.6801 25.2614C27.2804 23.9419 25.8753 21.9012 25.6407 19.0859C25.406 16.2707 26.4992 14.0483 28.6935 12.435L29.1255 12.0798C29.3654 11.8821 29.2348 11.3346 28.7842 10.9072C27.1244 9.26982 24.9008 8.33288 22.5718 8.28955C22.1198 8.28977 21.6686 8.32729 21.2227 8.40174C19.1963 8.74897 17.5699 9.71589 15.6609 9.71589C15.0817 9.7165 14.5059 9.62638 13.9545 9.44879C12.3547 8.93595 10.7656 8.28955 9.06456 8.28955C8.87792 8.28955 8.68862 8.28955 8.49932 8.31359C6.4022 8.53748 4.44402 9.47122 2.94817 10.9606C-0.000709933 13.8721 -0.419312 18.3941 0.316575 22.2164C1.02313 25.9185 2.76153 29.2546 5.11584 32.1768Z" fill="url(#paint0_linear_2846_1919)"/>
<path d="M15.7475 7.27129C19.609 6.97762 22.1874 4.51325 21.9833 0.129376C17.6307 0.496658 15.5349 3.38623 15.7475 7.27129Z" fill="url(#paint1_linear_2846_1919)"/>
<path d="M6.88867 46.9395C6.37305 46.9395 5.97461 46.5469 5.97461 46.0547C5.97461 45.5566 6.37305 45.1699 6.88867 45.1699C7.4043 45.1699 7.80273 45.5566 7.80273 46.0547C7.80273 46.5469 7.4043 46.9395 6.88867 46.9395ZM6.88867 54.123C6.35547 54.123 6.0332 53.7891 6.0332 53.2324V48.4863C6.0332 47.9297 6.35547 47.5898 6.88867 47.5898C7.41602 47.5898 7.74414 47.9297 7.74414 48.4863V53.2324C7.74414 53.7891 7.41602 54.123 6.88867 54.123ZM12.8477 54.1406C10.3398 54.1406 8.76953 52.4648 8.76953 49.7754C8.76953 47.0801 10.3398 45.3984 12.8477 45.3984C15.3496 45.3984 16.9258 47.0801 16.9258 49.7754C16.9258 52.4648 15.3496 54.1406 12.8477 54.1406ZM12.8477 52.6641C14.2305 52.6641 15.1152 51.5449 15.1152 49.7754C15.1152 48 14.2305 46.875 12.8477 46.875C11.4648 46.875 10.5742 48 10.5742 49.7754C10.5742 51.5449 11.459 52.6641 12.8477 52.6641ZM21.1621 54.1406C19.416 54.1406 18.2969 53.4434 17.957 52.5176C17.8984 52.3652 17.8633 52.2012 17.8633 52.043C17.8633 51.5742 18.1855 51.2637 18.6426 51.2637C19.0059 51.2637 19.2461 51.4043 19.457 51.7793C19.7324 52.4238 20.3945 52.7168 21.2031 52.7168C22.1523 52.7168 22.7969 52.2598 22.7969 51.6387C22.7969 51.082 22.3984 50.7656 21.3379 50.5488L20.4414 50.373C18.7539 50.0391 17.9277 49.2305 17.9277 47.9707C17.9277 46.4238 19.2754 45.3984 21.1562 45.3984C22.7031 45.3984 23.8691 46.0488 24.2441 47.1504C24.2852 47.2676 24.3086 47.3906 24.3086 47.543C24.3086 47.9648 24.0039 48.252 23.5527 48.252C23.1543 48.252 22.9082 48.0938 22.709 47.7305C22.4277 47.0918 21.8828 46.8281 21.1562 46.8281C20.2832 46.8281 19.7031 47.2383 19.7031 47.8594C19.7031 48.3809 20.1074 48.7031 21.1094 48.9023L22 49.084C23.793 49.4414 24.5664 50.1621 24.5664 51.4453C24.5664 53.0977 23.2715 54.1406 21.1621 54.1406Z" fill="white"/>
<defs>
<linearGradient id="paint0_linear_2846_1919" x1="9.21053" y1="15.3186" x2="17.8708" y2="31.9352" gradientUnits="userSpaceOnUse">
<stop stop-color="white"/>
<stop offset="1" stop-color="#9C9C9C" stop-opacity="0.788235"/>
</linearGradient>
<linearGradient id="paint1_linear_2846_1919" x1="17.6115" y1="1.93906" x2="20.3186" y2="5.93316" gradientUnits="userSpaceOnUse">
<stop stop-color="white"/>
<stop offset="1" stop-color="#9C9C9C" stop-opacity="0.788235"/>
</linearGradient>
</defs>
</svg>
