<svg width="28" height="28" viewBox="0 0 28 28" fill="none" xmlns="http://www.w3.org/2000/svg">
<g clip-path="url(#clip0_3035_1888)">
<path d="M20.4167 3H7.58333C5.05242 3 3 5.05242 3 7.58333V20.4167C3 22.9476 5.05242 25 7.58333 25H20.4167C22.9485 25 25 22.9476 25 20.4167V7.58333C25 5.05242 22.9485 3 20.4167 3ZM10.3333 20.4167H7.58333V10.3333H10.3333V20.4167ZM8.95833 9.171C8.07283 9.171 7.35417 8.44683 7.35417 7.554C7.35417 6.66117 8.07283 5.937 8.95833 5.937C9.84383 5.937 10.5625 6.66117 10.5625 7.554C10.5625 8.44683 9.84475 9.171 8.95833 9.171ZM21.3333 20.4167H18.5833V15.2797C18.5833 12.1923 14.9167 12.4261 14.9167 15.2797V20.4167H12.1667V10.3333H14.9167V11.9513C16.1963 9.58075 21.3333 9.40567 21.3333 14.2209V20.4167Z" fill="url(#paint0_linear_3035_1888)"/>
</g>
<defs>
<linearGradient id="paint0_linear_3035_1888" x1="3" y1="10.5625" x2="25.6094" y2="15.2931" gradientUnits="userSpaceOnUse">
<stop stop-color="#FF5F00"/>
<stop offset="1" stop-color="#FF0099"/>
</linearGradient>
<clipPath id="clip0_3035_1888">
<rect width="22" height="22" fill="white" transform="translate(3 3)"/>
</clipPath>
</defs>
</svg>
