<svg width="22" height="22" viewBox="0 0 22 22" fill="none" xmlns="http://www.w3.org/2000/svg">
<path d="M2.53348 10.0868C1.68506 10.0868 1.04874 9.87467 0.624531 9.45046C0.208177 9.02625 0 8.37422 0 7.49438V2.58061C0 1.70077 0.208177 1.05267 0.624531 0.636315C1.04874 0.212105 1.68506 0 2.53348 0H7.54151C8.38993 0 9.02625 0.212105 9.45046 0.636315C9.87467 1.05267 10.0868 1.70077 10.0868 2.58061V7.49438C10.0868 8.37422 9.87467 9.02625 9.45046 9.45046C9.02625 9.87467 8.38993 10.0868 7.54151 10.0868H2.53348ZM2.49813 8.21318H7.57686C7.78897 8.21318 7.95001 8.15819 8.05999 8.04821C8.16997 7.93823 8.22496 7.77325 8.22496 7.55329V2.50991C8.22496 2.28995 8.16997 2.12891 8.05999 2.02678C7.95001 1.9168 7.78897 1.86181 7.57686 1.86181H2.49813C2.28602 1.86181 2.12498 1.9168 2.015 2.02678C1.91287 2.12891 1.86181 2.28995 1.86181 2.50991V7.55329C1.86181 7.77325 1.91287 7.93823 2.015 8.04821C2.12498 8.15819 2.28602 8.21318 2.49813 8.21318ZM3.98286 6.33958C3.81789 6.33958 3.7354 6.24139 3.7354 6.04499V4.00643C3.7354 3.82575 3.81789 3.7354 3.98286 3.7354H6.08034C6.25317 3.7354 6.33958 3.82575 6.33958 4.00643V6.04499C6.33958 6.24139 6.25317 6.33958 6.08034 6.33958H3.98286ZM14.4585 10.0868C13.6101 10.0868 12.9738 9.87467 12.5495 9.45046C12.1253 9.02625 11.9132 8.37422 11.9132 7.49438V2.58061C11.9132 1.70077 12.1253 1.05267 12.5495 0.636315C12.9738 0.212105 13.6101 0 14.4585 0H19.4665C20.3149 0 20.9473 0.212105 21.3637 0.636315C21.7879 1.05267 22 1.70077 22 2.58061V7.49438C22 8.37422 21.7879 9.02625 21.3637 9.45046C20.9473 9.87467 20.3149 10.0868 19.4665 10.0868H14.4585ZM14.4231 8.21318H19.5019C19.7218 8.21318 19.8829 8.15819 19.985 8.04821C20.0871 7.93823 20.1382 7.77325 20.1382 7.55329V2.50991C20.1382 2.28995 20.0871 2.12891 19.985 2.02678C19.8829 1.9168 19.7218 1.86181 19.5019 1.86181H14.4231C14.2032 1.86181 14.0382 1.9168 13.9282 2.02678C13.8261 2.12891 13.775 2.28995 13.775 2.50991V7.55329C13.775 7.77325 13.8261 7.93823 13.9282 8.04821C14.0382 8.15819 14.2032 8.21318 14.4231 8.21318ZM15.955 6.33958C15.8057 6.33958 15.7311 6.24139 15.7311 6.04499V4.00643C15.7311 3.82575 15.8057 3.7354 15.955 3.7354H18.0643C18.2371 3.7354 18.3235 3.82575 18.3235 4.00643V6.04499C18.3235 6.24139 18.2371 6.33958 18.0643 6.33958H15.955ZM2.53348 22C1.68506 22 1.04874 21.7879 0.624531 21.3637C0.208177 20.9473 0 20.2992 0 19.4194V14.4938C0 13.6219 0.208177 12.9738 0.624531 12.5495C1.04874 12.1253 1.68506 11.9132 2.53348 11.9132H7.54151C8.38993 11.9132 9.02625 12.1253 9.45046 12.5495C9.87467 12.9738 10.0868 13.6219 10.0868 14.4938V19.4194C10.0868 20.2992 9.87467 20.9473 9.45046 21.3637C9.02625 21.7879 8.38993 22 7.54151 22H2.53348ZM2.49813 20.1382H7.57686C7.78897 20.1382 7.95001 20.0832 8.05999 19.9732C8.16997 19.8632 8.22496 19.7022 8.22496 19.4901V14.4349C8.22496 14.215 8.16997 14.05 8.05999 13.94C7.95001 13.83 7.78897 13.775 7.57686 13.775H2.49813C2.28602 13.775 2.12498 13.83 2.015 13.94C1.91287 14.05 1.86181 14.215 1.86181 14.4349V19.4901C1.86181 19.7022 1.91287 19.8632 2.015 19.9732C2.12498 20.0832 2.28602 20.1382 2.49813 20.1382ZM3.98286 18.2646C3.81789 18.2646 3.7354 18.1664 3.7354 17.97V15.9314C3.7354 15.7508 3.81789 15.6604 3.98286 15.6604H6.08034C6.25317 15.6604 6.33958 15.7508 6.33958 15.9314V17.97C6.33958 18.1664 6.25317 18.2646 6.08034 18.2646H3.98286ZM12.7499 15.0595C12.5849 15.0595 12.5024 14.9652 12.5024 14.7766V12.7381C12.5024 12.5574 12.5849 12.4671 12.7499 12.4671H14.8473C15.0123 12.4671 15.0948 12.5574 15.0948 12.7381V14.7766C15.0948 14.9652 15.0123 15.0595 14.8473 15.0595H12.7499ZM19.0541 15.0595C18.8891 15.0595 18.8066 14.9652 18.8066 14.7766V12.7381C18.8066 12.5574 18.8891 12.4671 19.0541 12.4671H21.1516C21.3166 12.4671 21.399 12.5574 21.399 12.7381V14.7766C21.399 14.9652 21.3166 15.0595 21.1516 15.0595H19.0541ZM15.9314 18.2292C15.7665 18.2292 15.684 18.131 15.684 17.9347V15.8961C15.684 15.7154 15.7665 15.6251 15.9314 15.6251H18.0289C18.1939 15.6251 18.2764 15.7154 18.2764 15.8961V17.9347C18.2764 18.131 18.1939 18.2292 18.0289 18.2292H15.9314ZM12.7499 21.3755C12.5849 21.3755 12.5024 21.2812 12.5024 21.0927V19.0423C12.5024 18.8616 12.5849 18.7713 12.7499 18.7713H14.8473C15.0123 18.7713 15.0948 18.8616 15.0948 19.0423V21.0927C15.0948 21.2812 15.0123 21.3755 14.8473 21.3755H12.7499ZM19.0541 21.3755C18.8891 21.3755 18.8066 21.2812 18.8066 21.0927V19.0423C18.8066 18.8616 18.8891 18.7713 19.0541 18.7713H21.1516C21.3166 18.7713 21.399 18.8616 21.399 19.0423V21.0927C21.399 21.2812 21.3166 21.3755 21.1516 21.3755H19.0541Z" fill="url(#paint0_linear_2529_3594)"/>
<defs>
<linearGradient id="paint0_linear_2529_3594" x1="11" y1="0" x2="11" y2="22" gradientUnits="userSpaceOnUse">
<stop stop-color="#E4E4E4"/>
<stop offset="1" stop-color="#ABABAB"/>
</linearGradient>
</defs>
</svg>
