<svg width="148" height="37" viewBox="0 0 148 37" fill="none" xmlns="http://www.w3.org/2000/svg">
<g clip-path="url(#clip0_2964_1836)">
<path fill-rule="evenodd" clip-rule="evenodd" d="M53.3008 27.5997H56.7769V19.9351H64.5186V16.6466H56.7769V12.3234H65.0455V9.03491H53.3008V27.5997Z" fill="white"/>
<path fill-rule="evenodd" clip-rule="evenodd" d="M76.6322 21.2346C76.6322 23.5685 75.4999 24.8947 73.367 24.8947C71.4708 24.8947 70.4175 23.8071 70.4175 21.9772V14.4451H67.0996V22.2954C67.0996 25.7166 69.285 27.8121 72.182 27.8121C74.5781 27.8121 75.7896 26.6979 76.3163 25.4782H76.6847V27.5996H79.9501V14.4451H76.6322V21.2346Z" fill="white"/>
<path fill-rule="evenodd" clip-rule="evenodd" d="M88.4291 10.3611H85.1112V14.4451H81.793V17.3625H85.1112V25.0538C85.1112 26.5388 86.217 27.5996 87.6917 27.5996H91.2728V24.6825H89.1665C88.6923 24.6825 88.4291 24.4174 88.4291 23.8867V17.3625H92.0105V14.4451H88.4291V10.3611Z" fill="white"/>
<path fill-rule="evenodd" clip-rule="evenodd" d="M103.859 21.2346C103.859 23.5685 102.726 24.8947 100.593 24.8947C98.6974 24.8947 97.6441 23.8071 97.6441 21.9772V14.4451H94.3262V22.2954C94.3262 25.7166 96.5115 27.8121 99.4086 27.8121C101.805 27.8121 103.016 26.6979 103.543 25.4782H103.911V27.5996H107.177V14.4451H103.859V21.2346Z" fill="white"/>
<path fill-rule="evenodd" clip-rule="evenodd" d="M122.738 19.6697C122.948 18.1051 124.028 16.9912 125.898 16.9912C127.609 16.9912 128.768 18.052 128.952 19.6697H122.738ZM125.924 14.074C122.079 14.074 119.262 16.938 119.262 20.9163C119.262 25.0006 122.079 27.9709 125.977 27.9709C129.479 27.9709 131.006 26.1146 131.902 24.7355L129.058 23.0909C128.61 24.0193 127.767 25.0537 125.924 25.0537C124.028 25.0537 122.79 23.7008 122.711 22.0036H132.375V20.7041C132.375 16.7522 129.716 14.074 125.924 14.074Z" fill="white"/>
<path fill-rule="evenodd" clip-rule="evenodd" d="M140.856 25.0007C138.855 25.0007 137.275 23.5685 137.275 21.0226C137.275 18.4763 138.855 17.0444 140.856 17.0444C142.91 17.0444 144.437 18.5296 144.437 21.0226C144.437 23.5154 142.91 25.0007 140.856 25.0007ZM144.437 9.03491V16.3017H144.122C143.437 15.1877 142.278 14.074 139.961 14.074C136.696 14.074 133.957 16.9912 133.957 21.0226C133.957 25.0538 136.696 27.971 139.961 27.971C142.278 27.971 143.437 26.857 144.122 25.7433H144.49V27.5997H147.756V9.03491H144.437Z" fill="white"/>
<path fill-rule="evenodd" clip-rule="evenodd" d="M110.336 16.9382V27.5997H113.654V18.1053C113.654 17.5749 113.917 17.3095 114.391 17.3095H118.499V14.3923H112.916C111.442 14.3923 110.336 15.4532 110.336 16.9382Z" fill="white"/>
<path fill-rule="evenodd" clip-rule="evenodd" d="M0.244141 37.0029H9.42854V27.7529H33.308V18.5029H9.42854L0.244141 27.7529V37.0029Z" fill="white"/>
<path fill-rule="evenodd" clip-rule="evenodd" d="M0.244141 9.25293V18.5029H9.42854V9.25293H33.308V0.00292969H9.42854L0.244141 9.25293Z" fill="white"/>
</g>
<defs>
<clipPath id="clip0_2964_1836">
<rect width="148" height="37" fill="white" transform="translate(0 0.00292969)"/>
</clipPath>
</defs>
</svg>
