<svg width="20" height="20" viewBox="0 0 20 20" fill="none" xmlns="http://www.w3.org/2000/svg">
<path d="M15.8333 9.16675H4.16667C3.24619 9.16675 2.5 9.91294 2.5 10.8334V16.6667C2.5 17.5872 3.24619 18.3334 4.16667 18.3334H15.8333C16.7538 18.3334 17.5 17.5872 17.5 16.6667V10.8334C17.5 9.91294 16.7538 9.16675 15.8333 9.16675Z" stroke="white" stroke-width="2" stroke-linecap="round" stroke-linejoin="round"/>
<path d="M5.83325 9.16675V5.83341C5.83325 4.72835 6.27224 3.66854 7.05364 2.88714C7.83504 2.10573 8.89485 1.66675 9.99992 1.66675C11.105 1.66675 12.1648 2.10573 12.9462 2.88714C13.7276 3.66854 14.1666 4.72835 14.1666 5.83341V9.16675" stroke="white" stroke-width="2" stroke-linecap="round" stroke-linejoin="round"/>
</svg>
