<svg width="51" height="65" viewBox="0 0 51 65" fill="none" xmlns="http://www.w3.org/2000/svg">
<path d="M8.49991 26.0517C9.06826 26.7594 9.9221 27.4448 10.9049 27.4448C11.464 27.4448 11.9389 27.1812 12.4494 26.9887C12.9195 26.8151 13.4166 26.7258 13.9176 26.7251C14.401 26.7223 14.8801 26.8165 15.3267 27.0019C15.5635 27.1021 15.7977 27.2088 16.0384 27.3011C16.2827 27.3956 16.5422 27.4443 16.8041 27.4448C17.2885 27.4392 17.7599 27.2871 18.1566 27.0085C19.309 26.2177 20.1629 24.8286 20.7681 23.6121C20.8286 23.4908 20.8865 23.3682 20.9444 23.247C21.0404 23.044 20.8891 22.787 20.6207 22.6394C19.4367 21.9883 18.7433 20.9814 18.6276 19.5922C18.5118 18.203 19.0512 17.1065 20.1339 16.3104L20.3471 16.1351C20.4655 16.0376 20.401 15.7674 20.1787 15.5565C19.3597 14.7486 18.2625 14.2863 17.1133 14.2649C16.8902 14.265 16.6676 14.2835 16.4476 14.3202C15.4477 14.4916 14.6452 14.9687 13.7032 14.9687C13.4174 14.969 13.1333 14.9245 12.8612 14.8369C12.0718 14.5838 11.2877 14.2649 10.4483 14.2649C10.3563 14.2649 10.2628 14.2649 10.1694 14.2768C9.13464 14.3872 8.16841 14.848 7.43031 15.5829C5.97524 17.0195 5.76868 19.2508 6.13179 21.1369C6.48043 22.9636 7.33822 24.6098 8.49991 26.0517Z" fill="url(#paint0_linear_2846_1924)"/>
<path d="M13.7455 13.7625C15.6509 13.6176 16.9231 12.4015 16.8224 10.2384C14.6747 10.4196 13.6406 11.8454 13.7455 13.7625Z" fill="url(#paint1_linear_2846_1924)"/>
<path d="M33.6542 9.45546L34.3933 7.15365C34.4356 7.02138 34.3629 6.87983 34.2309 6.83726C34.099 6.79489 33.9573 6.86768 33.9148 6.99979L33.1665 9.33071C32.1622 9.11075 31.0852 9.10011 29.9895 9.33694C28.8939 9.57376 27.9173 10.0283 27.0932 10.6435L25.4504 8.82938C25.3571 8.72661 25.1981 8.71881 25.0954 8.81191C24.9927 8.90521 24.9847 9.06421 25.0779 9.16717L26.7004 10.9585C24.911 12.5004 23.9676 14.8544 24.2885 17.3252L38.4766 14.2584C37.7498 11.8754 35.9197 10.1209 33.6542 9.45546Z" fill="url(#paint2_linear_2846_1924)"/>
<path d="M39.9795 15.862C39.7735 14.845 40.3763 13.8434 41.3257 13.6249C42.2752 13.4064 43.2119 14.0537 43.4179 15.0707L44.4746 20.2882C44.6806 21.3052 44.0778 22.3068 43.1284 22.5253C42.1789 22.7438 41.2422 22.0965 41.0362 21.0795L39.9795 15.862Z" fill="url(#paint3_linear_2846_1924)"/>
<path d="M28.7671 31.7677C28.544 30.6628 29.264 29.5873 30.3753 29.3655C31.4866 29.1437 32.5684 29.8596 32.7915 30.9644L33.936 36.6327C34.1591 37.7376 33.4391 38.8131 32.3278 39.0349C31.2165 39.2567 30.1347 38.5408 29.9116 37.4359L28.7671 31.7677Z" fill="url(#paint4_linear_2846_1924)"/>
<path d="M36.0517 30.7888C36.2999 29.7717 37.3681 29.1385 38.4376 29.3746C39.5071 29.6106 40.1728 30.6265 39.9247 31.6436L38.6514 36.8616C38.4032 37.8787 37.335 38.5119 36.2656 38.2758C35.1961 38.0398 34.5303 37.0239 34.7785 36.0068L36.0517 30.7888Z" fill="url(#paint5_linear_2846_1924)"/>
<path d="M1.87598 31.0156C1.87598 29.6263 3.00064 28.5 4.38811 28.5H44.3638C45.7513 28.5 46.876 29.6263 46.876 31.0156C46.876 32.405 45.7513 33.5312 44.3638 33.5312H42.9418C42.9435 33.5675 42.9439 33.604 42.9439 33.6406V41.7344C42.9439 43.1237 41.8193 44.25 40.4318 44.25C39.0443 44.25 37.9197 43.1237 37.9197 41.7344V33.6406C37.9197 33.604 37.9201 33.5675 37.9218 33.5312H10.3933C10.395 33.5675 10.3954 33.604 10.3954 33.6406V41.7344C10.3954 43.1237 9.27074 44.25 7.88326 44.25C6.49578 44.25 5.37112 43.1237 5.37112 41.7344V33.6406C5.37112 33.604 5.37155 33.5675 5.37326 33.5312H4.38811C3.00064 33.5312 1.87598 32.405 1.87598 31.0156Z" fill="url(#paint6_linear_2846_1924)"/>
<path fill-rule="evenodd" clip-rule="evenodd" d="M25.6739 24.4861L24.7361 26.7345C24.3374 27.6905 23.2393 28.1422 22.2833 27.7435C21.3274 27.3448 20.8757 26.2466 21.2744 25.2907L23.9294 18.9252C24.1624 18.3664 24.6345 17.98 25.1774 17.8349C25.2365 17.8109 25.2985 17.7917 25.3629 17.7778L37.7673 15.1173C38.3629 14.9896 38.9491 15.3688 39.0769 15.9643L41.4598 27.0744C41.5875 27.6699 41.2083 28.2562 40.6128 28.3839L28.2084 31.0444C27.6129 31.1722 27.0266 30.7929 26.8989 30.1974L25.6739 24.4861Z" fill="url(#paint7_linear_2846_1924)"/>
<path d="M13.3301 62.1113C12.832 62.1113 12.5391 61.8066 12.5391 61.2852V54.5703C12.5391 53.8555 12.9609 53.4277 13.6816 53.4277C14.2969 53.4277 14.6367 53.6855 14.8945 54.3418L16.9922 59.5391H17.0391L19.1309 54.3418C19.3887 53.6914 19.7344 53.4277 20.3555 53.4277C21.0703 53.4277 21.4922 53.8496 21.4922 54.5703V61.2852C21.4922 61.8066 21.1992 62.1113 20.7012 62.1113C20.2031 62.1113 19.916 61.8066 19.916 61.2852V56.293H19.8691L17.7773 61.4082C17.625 61.7832 17.3906 61.9473 17.0215 61.9473C16.6465 61.9473 16.4004 61.7773 16.2539 61.4141L14.1621 56.293H14.1152V61.2852C14.1152 61.8066 13.8281 62.1113 13.3301 62.1113ZM24.9844 62.1172C23.625 62.1172 22.7227 61.2324 22.7227 59.7676V56.4863C22.7227 55.9004 23.0801 55.5898 23.5781 55.5898C24.082 55.5898 24.4336 55.9004 24.4336 56.4863V59.4102C24.4336 60.248 24.8496 60.6934 25.6055 60.6934C26.3672 60.6934 26.8418 60.1484 26.8418 59.3164V56.4863C26.8418 55.9004 27.1992 55.5898 27.6973 55.5898C28.2012 55.5898 28.5527 55.9004 28.5527 56.4863V61.2559C28.5527 61.8242 28.2188 62.123 27.7266 62.123C27.2344 62.123 26.9004 61.8242 26.9004 61.2559V60.8691H26.8652C26.5547 61.6602 25.9336 62.1172 24.9844 62.1172ZM30.5625 62.123C30.0645 62.123 29.707 61.8184 29.707 61.2324V54.3125C29.707 53.7266 30.0645 53.416 30.5625 53.416C31.0664 53.416 31.418 53.7266 31.418 54.3125V61.2324C31.418 61.8184 31.0664 62.123 30.5625 62.123ZM33.0293 60.3945V57.0078H32.7012C32.2969 57.0078 32.0391 56.7617 32.0391 56.3633C32.0391 55.9648 32.2969 55.7188 32.7012 55.7188H33.0293V55.0215C33.0293 54.4707 33.3516 54.1309 33.8848 54.1309C34.418 54.1309 34.7402 54.4707 34.7402 55.0215V55.7188H35.3438C35.748 55.7188 36 55.9707 36 56.3633C36 56.7559 35.748 57.0078 35.3438 57.0078H34.7402V60.0137C34.7402 60.459 34.8926 60.6465 35.2617 60.6758L35.373 60.6875C35.7949 60.7344 36.0234 60.9102 36.0234 61.3086C36.0234 61.8125 35.5312 62.0703 34.8105 62.0703H34.752C33.6094 62.0703 33.0293 61.502 33.0293 60.3945ZM37.7227 54.9395C37.207 54.9395 36.8086 54.5469 36.8086 54.0547C36.8086 53.5566 37.207 53.1699 37.7227 53.1699C38.2383 53.1699 38.6367 53.5566 38.6367 54.0547C38.6367 54.5469 38.2383 54.9395 37.7227 54.9395ZM37.7227 62.123C37.1895 62.123 36.8672 61.7891 36.8672 61.2324V56.4863C36.8672 55.9297 37.1895 55.5898 37.7227 55.5898C38.25 55.5898 38.5781 55.9297 38.5781 56.4863V61.2324C38.5781 61.7891 38.25 62.123 37.7227 62.123Z" fill="white"/>
<defs>
<linearGradient id="paint0_linear_2846_1924" x1="9.35352" y1="16.2109" x2="15.5696" y2="28.9174" gradientUnits="userSpaceOnUse">
<stop stop-color="white"/>
<stop offset="1" stop-color="#9C9C9C"/>
</linearGradient>
<linearGradient id="paint1_linear_2846_1924" x1="14.4177" y1="10.7114" x2="16.3851" y2="13.8038" gradientUnits="userSpaceOnUse">
<stop stop-color="white"/>
<stop offset="1" stop-color="#9C9C9C"/>
</linearGradient>
<linearGradient id="paint2_linear_2846_1924" x1="27.376" y1="12.0001" x2="35.626" y2="15.3751" gradientUnits="userSpaceOnUse">
<stop stop-color="white"/>
<stop offset="1" stop-color="#9C9C9C"/>
</linearGradient>
<linearGradient id="paint3_linear_2846_1924" x1="44.6034" y1="16.4654" x2="40.8864" y2="18.7695" gradientUnits="userSpaceOnUse">
<stop offset="0.152106" stop-color="white"/>
<stop offset="1" stop-color="#9C9C9C"/>
</linearGradient>
<linearGradient id="paint4_linear_2846_1924" x1="32.626" y1="38.6251" x2="31.501" y2="32.2501" gradientUnits="userSpaceOnUse">
<stop stop-color="white"/>
<stop offset="1" stop-color="#9C9C9C"/>
</linearGradient>
<linearGradient id="paint5_linear_2846_1924" x1="37.876" y1="36.7501" x2="38.251" y2="33.3751" gradientUnits="userSpaceOnUse">
<stop stop-color="white"/>
<stop offset="1" stop-color="#9C9C9C"/>
</linearGradient>
<linearGradient id="paint6_linear_2846_1924" x1="42.376" y1="39" x2="-14.249" y2="26.25" gradientUnits="userSpaceOnUse">
<stop offset="0.264541" stop-color="#9C9C9C"/>
<stop offset="1" stop-color="white"/>
</linearGradient>
<linearGradient id="paint7_linear_2846_1924" x1="21.0005" y1="20" x2="41.0008" y2="29.4994" gradientUnits="userSpaceOnUse">
<stop offset="0.195697" stop-color="white"/>
<stop offset="0.877289" stop-color="#999999"/>
</linearGradient>
</defs>
</svg>
