<svg width="40" height="50" viewBox="0 0 40 50" fill="none" xmlns="http://www.w3.org/2000/svg">
<path d="M28.5097 16.4363C27.6131 16.4363 26.8838 15.7065 26.8838 14.8099C26.8838 13.9133 27.6131 13.184 28.5097 13.184C29.4063 13.184 30.1356 13.9133 30.1356 14.8099C30.1356 15.7065 29.4063 16.4363 28.5097 16.4363ZM10.5379 16.4363C9.6413 16.4363 8.91202 15.7065 8.91202 14.8099C8.91202 13.9133 9.6413 13.184 10.5379 13.184C11.4345 13.184 12.1638 13.9133 12.1638 14.8099C12.1638 15.7065 11.4345 16.4363 10.5379 16.4363ZM29.0928 6.64197L32.3425 1.01391C32.5288 0.690418 32.4179 0.277222 32.095 0.0904107C31.772 -0.095872 31.3583 0.0149475 31.1715 0.337907L27.8812 6.03721C25.365 4.8889 22.5392 4.24932 19.5238 4.24932C16.5084 4.24932 13.6825 4.8889 11.1664 6.03721L7.87611 0.337907C7.6893 0.0149475 7.27558 -0.095872 6.95261 0.0904107C6.62965 0.277222 6.51831 0.690418 6.70512 1.01391L9.95475 6.64197C4.37473 9.67684 0.558312 15.326 0 22H39.0476C38.4888 15.326 34.6723 9.67684 29.0928 6.64197Z" fill="url(#paint0_linear_2846_1914)"/>
<path d="M6.37549 43C5.81885 43 5.49072 42.6602 5.49072 42.0742V35.4648C5.49072 34.8848 5.81885 34.5449 6.37549 34.5449H8.71924C11.2563 34.5449 12.7505 36.0566 12.7505 38.7402C12.7505 41.4238 11.2563 43 8.71924 43H6.37549ZM7.26025 41.5352H8.5083C10.0903 41.5352 10.9458 40.5742 10.9458 38.7461C10.9458 36.9766 10.0669 36.0039 8.5083 36.0039H7.26025V41.5352ZM14.6021 43.123C14.0864 43.123 13.7466 42.8008 13.7466 42.2324V37.4512C13.7466 36.9062 14.0806 36.5898 14.5728 36.5898C15.0532 36.5898 15.3813 36.9062 15.3813 37.4512V37.8613H15.4165C15.5806 37.082 16.0962 36.6191 16.7231 36.6191C16.9517 36.6191 17.1333 36.6719 17.2563 36.7773C17.4204 36.9062 17.5024 37.1172 17.5024 37.4102C17.5024 37.6797 17.4204 37.8848 17.2563 38.0254C17.0923 38.166 16.8462 38.2422 16.5122 38.248C15.7329 38.2598 15.4575 38.6992 15.4575 39.4434V42.2324C15.4575 42.8008 15.1235 43.123 14.6021 43.123ZM20.7896 43.1348C18.8911 43.1348 17.6782 41.916 17.6782 39.8535C17.6782 37.8203 18.9087 36.584 20.7896 36.584C22.6704 36.584 23.9009 37.8145 23.9009 39.8535C23.9009 41.9219 22.688 43.1348 20.7896 43.1348ZM20.7896 41.8281C21.6274 41.8281 22.1606 41.1191 22.1606 39.8594C22.1606 38.6113 21.6216 37.8906 20.7896 37.8906C19.9575 37.8906 19.4126 38.6113 19.4126 39.8594C19.4126 41.1191 19.9458 41.8281 20.7896 41.8281ZM25.6704 35.9395C25.1548 35.9395 24.7563 35.5469 24.7563 35.0547C24.7563 34.5566 25.1548 34.1699 25.6704 34.1699C26.186 34.1699 26.5845 34.5566 26.5845 35.0547C26.5845 35.5469 26.186 35.9395 25.6704 35.9395ZM25.6704 43.123C25.1372 43.123 24.8149 42.7891 24.8149 42.2324V37.4863C24.8149 36.9297 25.1372 36.5898 25.6704 36.5898C26.1978 36.5898 26.5259 36.9297 26.5259 37.4863V42.2324C26.5259 42.7891 26.1978 43.123 25.6704 43.123ZM30.0005 43.0996C28.4302 43.0996 27.4399 41.8574 27.4399 39.8477C27.4399 37.8555 28.436 36.6191 30.0122 36.6191C30.9204 36.6191 31.6235 37.0996 31.9282 37.7969H31.9634V35.3125C31.9634 34.7266 32.3208 34.416 32.8188 34.416C33.3228 34.416 33.6743 34.7266 33.6743 35.3125V42.2559C33.6743 42.8242 33.3228 43.123 32.8247 43.123C32.3325 43.123 31.9634 42.8301 31.9634 42.2559V41.8926H31.9341C31.6587 42.5957 30.9673 43.0996 30.0005 43.0996ZM30.5806 41.7227C31.4302 41.7227 31.9751 41.0078 31.9751 39.8594C31.9751 38.7168 31.4302 37.9902 30.5806 37.9902C29.7192 37.9902 29.1919 38.7109 29.1919 39.8594C29.1919 41.0137 29.7192 41.7227 30.5806 41.7227Z" fill="white"/>
<defs>
<linearGradient id="paint0_linear_2846_1914" x1="7.84801" y1="1.744" x2="28.776" y2="26.16" gradientUnits="userSpaceOnUse">
<stop stop-color="white"/>
<stop offset="1" stop-color="#9C9C9C"/>
</linearGradient>
</defs>
</svg>
