<svg width="52" height="53" viewBox="0 0 52 53" fill="none" xmlns="http://www.w3.org/2000/svg">
<circle cx="26" cy="26.4995" r="26" fill="white" fill-opacity="0.1"/>
<path d="M40.3031 31.3574C39.6987 31.3574 39.2093 31.8469 39.2093 32.4512V35.1308C39.2093 37.5439 37.2473 39.5059 34.8341 39.5059H32.1543C31.55 39.5059 31.0605 39.9953 31.0605 40.5996C31.0605 41.2039 31.55 41.6934 32.1543 41.6934H34.8341C38.4533 41.6934 41.3969 38.7498 41.3969 35.1308V32.4512C41.3969 31.8469 40.9074 31.3574 40.3031 31.3574Z" fill="url(#paint0_linear_2918_2179)"/>
<path d="M11.9317 21.4697C12.536 21.4697 13.0255 20.9803 13.0255 20.376V17.6963C13.0255 15.2832 14.9875 13.3213 17.4007 13.3213H20.0804C20.6848 13.3213 21.1742 12.8319 21.1742 12.2275C21.1742 11.6232 20.6848 11.1338 20.0804 11.1338H17.4007C13.7815 11.1338 10.8379 14.0774 10.8379 17.6963V20.376C10.8379 20.9803 11.3273 21.4697 11.9317 21.4697Z" fill="url(#paint1_linear_2918_2179)"/>
<path d="M34.8341 11.1338H32.1543C31.55 11.1338 31.0605 11.6232 31.0605 12.2275C31.0605 12.8319 31.55 13.3213 32.1543 13.3213H34.8341C37.2473 13.3213 39.2093 15.2832 39.2093 17.6963V20.376C39.2093 20.9803 39.6987 21.4697 40.3031 21.4697C40.9074 21.4697 41.3969 20.9803 41.3969 20.376V17.6963C41.3969 14.0773 38.4532 11.1338 34.8341 11.1338Z" fill="url(#paint2_linear_2918_2179)"/>
<path d="M17.4007 41.6934H20.0804C20.6848 41.6934 21.1742 41.2039 21.1742 40.5996C21.1742 39.9953 20.6848 39.5059 20.0804 39.5059H17.4007C14.9875 39.5059 13.0255 37.5439 13.0255 35.1308V32.4512C13.0255 31.8469 12.536 31.3574 11.9317 31.3574C11.3274 31.3574 10.8379 31.8469 10.8379 32.4512V35.1308C10.8379 38.7499 13.7816 41.6934 17.4007 41.6934Z" fill="url(#paint3_linear_2918_2179)"/>
<path d="M19.5879 21.6537C19.5879 20.8805 20.2147 20.2537 20.9879 20.2537H23.088C23.8613 20.2537 24.4881 20.8805 24.4881 21.6537V23.7537C24.4881 24.5269 23.8613 25.1537 23.088 25.1537H20.9879C20.2147 25.1537 19.5879 24.5269 19.5879 23.7537V21.6537Z" fill="url(#paint4_linear_2918_2179)"/>
<path d="M27.2871 21.6537C27.2871 20.8805 27.9139 20.2537 28.6872 20.2537H30.7872C31.5605 20.2537 32.1873 20.8805 32.1873 21.6537V23.7537C32.1873 24.5269 31.5605 25.1537 30.7872 25.1537H28.6872C27.9139 25.1537 27.2871 24.5269 27.2871 23.7537V21.6537Z" fill="url(#paint5_linear_2918_2179)"/>
<path d="M19.5879 29.3536C19.5879 28.5804 20.2147 27.9536 20.9879 27.9536H23.088C23.8613 27.9536 24.4881 28.5804 24.4881 29.3536V31.4536C24.4881 32.2268 23.8613 32.8536 23.088 32.8536H20.9879C20.2147 32.8536 19.5879 32.2268 19.5879 31.4536V29.3536Z" fill="url(#paint6_linear_2918_2179)"/>
<path d="M27.2871 29.3536C27.2871 28.5804 27.9139 27.9536 28.6872 27.9536H30.7872C31.5605 27.9536 32.1873 28.5804 32.1873 29.3536V31.4536C32.1873 32.2268 31.5605 32.8536 30.7872 32.8536H28.6872C27.9139 32.8536 27.2871 32.2268 27.2871 31.4536V29.3536Z" fill="url(#paint7_linear_2918_2179)"/>
<defs>
<linearGradient id="paint0_linear_2918_2179" x1="36.2287" y1="31.3574" x2="36.2287" y2="41.6934" gradientUnits="userSpaceOnUse">
<stop stop-color="white"/>
<stop offset="1" stop-color="#9C9C9C"/>
</linearGradient>
<linearGradient id="paint1_linear_2918_2179" x1="16.0061" y1="11.1338" x2="16.0061" y2="21.4697" gradientUnits="userSpaceOnUse">
<stop stop-color="white"/>
<stop offset="1" stop-color="#9C9C9C"/>
</linearGradient>
<linearGradient id="paint2_linear_2918_2179" x1="36.2287" y1="11.1338" x2="36.2287" y2="21.4697" gradientUnits="userSpaceOnUse">
<stop stop-color="white"/>
<stop offset="1" stop-color="#9C9C9C"/>
</linearGradient>
<linearGradient id="paint3_linear_2918_2179" x1="16.0061" y1="31.3574" x2="16.0061" y2="41.6934" gradientUnits="userSpaceOnUse">
<stop stop-color="white"/>
<stop offset="1" stop-color="#9C9C9C"/>
</linearGradient>
<linearGradient id="paint4_linear_2918_2179" x1="22.038" y1="20.2537" x2="22.038" y2="25.1537" gradientUnits="userSpaceOnUse">
<stop stop-color="white"/>
<stop offset="1" stop-color="#9C9C9C"/>
</linearGradient>
<linearGradient id="paint5_linear_2918_2179" x1="29.7372" y1="20.2537" x2="29.7372" y2="25.1537" gradientUnits="userSpaceOnUse">
<stop stop-color="white"/>
<stop offset="1" stop-color="#9C9C9C"/>
</linearGradient>
<linearGradient id="paint6_linear_2918_2179" x1="22.038" y1="27.9536" x2="22.038" y2="32.8536" gradientUnits="userSpaceOnUse">
<stop stop-color="white"/>
<stop offset="1" stop-color="#9C9C9C"/>
</linearGradient>
<linearGradient id="paint7_linear_2918_2179" x1="29.7372" y1="27.9536" x2="29.7372" y2="32.8536" gradientUnits="userSpaceOnUse">
<stop stop-color="white"/>
<stop offset="1" stop-color="#9C9C9C"/>
</linearGradient>
</defs>
</svg>
