<svg width="46" height="64" viewBox="0 0 46 64" fill="none" xmlns="http://www.w3.org/2000/svg">
<path fill-rule="evenodd" clip-rule="evenodd" d="M28.9704 22.1313C30.5664 20.3383 31.5389 17.9578 31.5389 15.3457C31.5389 9.76745 27.1035 5.24536 21.6321 5.24536C16.1607 5.24536 11.7253 9.76745 11.7253 15.3457C11.7253 18.0609 12.7761 20.5258 14.4857 22.3408C12.8014 22.8107 11.0324 23.4292 9.12582 24.1981C8.12124 24.6032 7.37718 25.4883 7.11084 26.5557L4.72782 36.1065C4.10037 38.6212 6.27374 40.9364 8.7826 40.5002C18.5596 38.8001 25.7738 38.7649 35.7625 40.4862C38.2959 40.9228 40.477 38.5592 39.8028 36.0314L37.2686 26.53C36.9879 25.4776 36.2414 24.6115 35.2444 24.2162C32.9896 23.3222 30.9273 22.6263 28.9704 22.1313Z" fill="url(#paint0_linear_2846_1939)"/>
<path d="M12.4146 60.3223C11.8638 60.3223 11.5298 59.9824 11.5298 59.4023V52.6641C11.5298 52.084 11.8579 51.7441 12.4146 51.7441H14.9927C16.938 51.7441 18.0513 52.7695 18.0513 54.4395C18.0513 55.4941 17.5298 56.3965 16.5981 56.7949L17.8169 58.9043C17.9634 59.1562 18.0044 59.3086 18.0044 59.5137C18.0044 59.9824 17.6294 60.3223 17.1138 60.3223C16.6919 60.3223 16.4985 60.1699 16.2114 59.6543L14.8052 57.1055H13.2993V59.4023C13.2993 59.9824 12.9712 60.3223 12.4146 60.3223ZM13.2993 55.8223H14.8228C15.7134 55.8223 16.2349 55.3125 16.2349 54.4746C16.2349 53.6543 15.6841 53.127 14.8052 53.127H13.2993V55.8223ZM21.9009 60.334C19.938 60.334 18.7837 59.1211 18.7837 57.0879C18.7837 55.0664 19.9614 53.7832 21.8188 53.7832C23.6001 53.7832 24.7954 55.002 24.7954 56.707C24.7954 57.1816 24.5259 57.4512 24.0513 57.4512H20.4653V57.5273C20.4653 58.459 21.0278 59.0684 21.895 59.0684C22.522 59.0684 22.9321 58.8574 23.395 58.3125C23.5767 58.125 23.729 58.0605 23.9517 58.0605C24.3208 58.0605 24.6196 58.2949 24.6196 58.6875C24.6196 58.8223 24.5786 58.9629 24.5024 59.1035C24.0864 59.877 23.1138 60.334 21.9009 60.334ZM20.4829 56.4023H23.1489C23.1138 55.582 22.5864 55.0488 21.8364 55.0488C21.0864 55.0488 20.5415 55.5996 20.4829 56.4023ZM28.2407 60.334C26.7993 60.334 25.8384 59.8184 25.5396 59.0801C25.4985 58.9688 25.4751 58.8574 25.4751 58.7637C25.4751 58.3711 25.7681 58.1074 26.1665 58.1074C26.4419 58.1074 26.6763 58.2305 26.9106 58.4941C27.2446 58.9336 27.6313 59.1328 28.2817 59.1328C28.9028 59.1328 29.3071 58.875 29.3071 58.459C29.3071 58.1191 29.0903 57.9375 28.4751 57.8027L27.4204 57.5801C26.1899 57.3164 25.5688 56.6895 25.5688 55.7578C25.5688 54.5566 26.606 53.7832 28.2349 53.7832C29.5356 53.7832 30.4907 54.375 30.6958 55.084C30.7192 55.1719 30.7368 55.2539 30.7368 55.3359C30.7368 55.6816 30.52 55.9219 30.0806 55.9219C29.8579 55.9219 29.6118 55.8398 29.4595 55.6582C29.1606 55.2773 28.8208 54.9844 28.2056 54.9844C27.6255 54.9844 27.2212 55.2598 27.2212 55.6641C27.2212 55.9922 27.4673 56.209 28.0942 56.3438L29.1313 56.5664C30.4673 56.8477 31.0181 57.3398 31.0181 58.2773C31.0181 59.5254 29.8989 60.334 28.2407 60.334ZM32.3247 58.5938V55.207H31.9966C31.5923 55.207 31.3345 54.9609 31.3345 54.5625C31.3345 54.1641 31.5923 53.918 31.9966 53.918H32.3247V53.2207C32.3247 52.6699 32.647 52.3301 33.1802 52.3301C33.7134 52.3301 34.0356 52.6699 34.0356 53.2207V53.918H34.6392C35.0435 53.918 35.2954 54.1699 35.2954 54.5625C35.2954 54.9551 35.0435 55.207 34.6392 55.207H34.0356V58.2129C34.0356 58.6582 34.188 58.8457 34.5571 58.875L34.6685 58.8867C35.0903 58.9336 35.3188 59.1094 35.3188 59.5078C35.3188 60.0117 34.8267 60.2695 34.106 60.2695H34.0474C32.9048 60.2695 32.3247 59.7012 32.3247 58.5938Z" fill="white"/>
<defs>
<linearGradient id="paint0_linear_2846_1939" x1="10.2163" y1="7.82887" x2="42.0796" y2="44.8592" gradientUnits="userSpaceOnUse">
<stop stop-color="white"/>
<stop offset="0.898629" stop-color="#9C9C9C"/>
</linearGradient>
</defs>
</svg>
