<svg width="49" height="66" viewBox="0 0 49 66" fill="none" xmlns="http://www.w3.org/2000/svg">
<path fill-rule="evenodd" clip-rule="evenodd" d="M20.7358 37.5038C30.5178 37.5038 38.4477 29.556 38.4477 19.7519C38.4477 9.94779 30.5178 2 20.7358 2C10.9538 2 3.02393 9.94779 3.02393 19.7519C3.02393 29.556 10.9538 37.5038 20.7358 37.5038ZM20.7358 34.0993C28.6418 34.0993 35.0509 27.6757 35.0509 19.7519C35.0509 11.828 28.6418 5.40447 20.7358 5.40447C12.8298 5.40447 6.42073 11.828 6.42073 19.7519C6.42073 27.6757 12.8298 34.0993 20.7358 34.0993Z" fill="url(#paint0_linear_2846_1943)"/>
<path d="M21.9463 13.1519C21.8937 12.817 21.8004 12.48 21.664 12.1486C20.8455 10.1603 18.7814 9.12773 17.0536 9.84221C15.3258 10.5567 14.5886 12.7477 15.4071 14.736C15.5435 15.0672 15.7144 15.3719 15.9126 15.6465C15.7489 16.2941 15.668 17.0113 15.6739 17.7731C14.5331 17.9955 13.4812 17.7814 12.1997 17.1268C11.7712 16.9079 11.2426 17.2016 11.2383 17.6836C11.2364 17.9053 11.3528 18.1124 11.5456 18.221C13.1707 19.1361 14.3995 19.4556 15.7761 19.1658C15.8962 20.0467 16.1229 20.9632 16.4613 21.8825C15.2392 22.1926 14.1411 21.9955 12.7895 21.2862C12.3476 21.0543 11.7952 21.3554 11.7907 21.8554C11.7888 22.0794 11.9046 22.2893 12.0977 22.4022C13.9878 23.5064 15.3418 23.7743 17.0164 23.1833C17.253 23.6676 17.5124 24.126 17.7901 24.5553C16.7432 25.4597 16.2177 26.6098 15.904 28.4368C15.8671 28.6519 15.9548 28.8694 16.1274 29.0025C16.4917 29.2835 17.024 29.0641 17.1189 28.6133C17.3941 27.3064 17.8281 26.3814 18.5771 25.6367C19.8689 27.2136 21.412 28.2203 22.863 28.4059C23.312 27.7573 23.587 26.998 23.6548 26.2075C24.2942 26.75 25.0735 27.1037 25.8987 27.2295C26.9225 26.011 27.3333 23.9969 27.0428 21.7412C28.2179 21.6369 29.2418 21.9782 30.4383 22.8071C30.8487 23.0914 31.4336 22.8602 31.4994 22.3645C31.5288 22.1427 31.4401 21.9202 31.2626 21.7842C29.6135 20.521 28.3515 20.0808 26.7794 20.3459C26.7042 20.0425 26.6168 19.737 26.517 19.4304C27.9982 18.6935 28.7081 17.5411 29.1873 15.4647C29.2386 15.2424 29.168 15.0094 29.0061 14.8491C28.6245 14.4713 27.9741 14.6747 27.8239 15.1907C27.4384 16.515 26.8803 17.3833 25.958 17.9917C25.541 17.0726 25.0419 16.2391 24.4897 15.5124C25.5316 14.7541 26.1271 13.6865 26.6003 12.0023C26.6604 11.7887 26.597 11.5593 26.4394 11.4034C26.0959 11.0632 25.512 11.2298 25.3621 11.6899C24.9499 12.9551 24.411 13.8151 23.5702 14.4491C23.0507 13.9236 22.5031 13.4866 21.9463 13.1519Z" fill="url(#paint1_linear_2846_1943)"/>
<path d="M35.4859 29.2358L38.6243 31.9845L34.7927 36.3792L31.6542 33.6305L35.4859 29.2358Z" fill="url(#paint2_linear_2846_1943)"/>
<path d="M37.0404 30.3572C37.3931 29.9527 38.0062 29.9113 38.4099 30.2648L45.6402 36.5973C46.0438 36.9508 46.0851 37.5653 45.7324 37.9698L41.8104 42.4681C41.4577 42.8726 40.8446 42.914 40.441 42.5605L33.2107 36.228C32.8071 35.8745 32.7658 35.26 33.1185 34.8555L37.0404 30.3572Z" fill="url(#paint3_linear_2846_1943)"/>
<path d="M20.5312 63.1406C18.0234 63.1406 16.4531 61.4883 16.4531 58.7754C16.4531 56.0859 18.0234 54.3984 20.5312 54.3984C23.0332 54.3984 24.6035 56.0859 24.6035 58.7754C24.6035 60.2637 24.1289 61.459 23.2559 62.1797L23.7305 62.8711C23.8477 63.0527 23.8945 63.1875 23.8945 63.3691C23.8945 63.7559 23.5957 64.0312 23.1738 64.0312C22.8867 64.0312 22.6992 63.9258 22.5234 63.6562L22.0078 62.9121C21.5566 63.0645 21.0645 63.1406 20.5312 63.1406ZM20.5312 61.6816C20.748 61.6816 20.9473 61.6523 21.1348 61.5996L20.7305 61.0137C20.6133 60.8379 20.5664 60.6855 20.5664 60.5391C20.5664 60.1582 20.8477 59.8887 21.2285 59.8887C21.4746 59.8887 21.6445 59.9766 21.791 60.1816L22.1836 60.7148C22.5762 60.2578 22.7988 59.5898 22.7988 58.7754C22.7988 57 21.9141 55.8574 20.5312 55.8574C19.1426 55.8574 18.2578 57 18.2578 58.7754C18.2578 60.5449 19.1426 61.6816 20.5312 61.6816ZM25.9629 63.1113C25.4121 63.1113 25.0664 62.7891 25.0664 62.2793C25.0664 62.1328 25.1074 61.9336 25.1836 61.7168L27.4922 55.4297C27.7383 54.7441 28.1543 54.4277 28.8223 54.4277C29.5137 54.4277 29.9238 54.7324 30.1758 55.4238L32.4961 61.7168C32.5781 61.9453 32.6074 62.1035 32.6074 62.2793C32.6074 62.7656 32.2383 63.1113 31.7227 63.1113C31.2246 63.1113 30.9609 62.8828 30.8027 62.332L30.3574 60.9961H27.3047L26.8594 62.3145C26.6953 62.877 26.4316 63.1113 25.9629 63.1113ZM27.6914 59.625H29.9473L28.8281 56.1621H28.7871L27.6914 59.625Z" fill="white"/>
<defs>
<linearGradient id="paint0_linear_2846_1943" x1="10.0602" y1="7.10671" x2="34.8601" y2="30.1527" gradientUnits="userSpaceOnUse">
<stop stop-color="#D9D9D9"/>
<stop offset="1" stop-color="#9C9C9C"/>
</linearGradient>
<linearGradient id="paint1_linear_2846_1943" x1="10.0602" y1="7.10671" x2="34.8601" y2="30.1527" gradientUnits="userSpaceOnUse">
<stop stop-color="#D9D9D9"/>
<stop offset="1" stop-color="#9C9C9C"/>
</linearGradient>
<linearGradient id="paint2_linear_2846_1943" x1="10.0602" y1="7.10671" x2="34.8601" y2="30.1527" gradientUnits="userSpaceOnUse">
<stop stop-color="#D9D9D9"/>
<stop offset="1" stop-color="#9C9C9C"/>
</linearGradient>
<linearGradient id="paint3_linear_2846_1943" x1="10.0602" y1="7.10671" x2="34.8601" y2="30.1527" gradientUnits="userSpaceOnUse">
<stop stop-color="#D9D9D9"/>
<stop offset="1" stop-color="#9C9C9C"/>
</linearGradient>
</defs>
</svg>
